<svg width="18" height="18" viewBox="0 0 18 18" fill="none" xmlns="http://www.w3.org/2000/svg">
<path d="M15.1875 12.9375H5.625L2.8125 1.125H1.125M3.375 3.375H16.875L15.1875 10.6875H5.0625L3.375 3.375Z" stroke="white" stroke-width="1.5" stroke-linecap="round" stroke-linejoin="round"/>
<path d="M14.0625 16.3125C14.6838 16.3125 15.1875 15.8088 15.1875 15.1875C15.1875 14.5662 14.6838 14.0625 14.0625 14.0625C13.4412 14.0625 12.9375 14.5662 12.9375 15.1875C12.9375 15.8088 13.4412 16.3125 14.0625 16.3125Z" stroke="white" stroke-width="1.5" stroke-linecap="round" stroke-linejoin="round"/>
<path d="M6.75 16.3125C7.37132 16.3125 7.875 15.8088 7.875 15.1875C7.875 14.5662 7.37132 14.0625 6.75 14.0625C6.12868 14.0625 5.625 14.5662 5.625 15.1875C5.625 15.8088 6.12868 16.3125 6.75 16.3125Z" stroke="white" stroke-width="1.5" stroke-linecap="round" stroke-linejoin="round"/>
</svg>
