<svg width="34" height="34" viewBox="0 0 34 34" fill="none" xmlns="http://www.w3.org/2000/svg">
<g clip-path="url(#clip0_891_10449)">
<path d="M21.4027 10.695L21.3676 22.1949C21.3609 24.4049 19.5654 26.1894 17.3555 26.1827C15.1455 26.1759 13.3609 24.3805 13.3677 22.1705L13.4058 9.67057C13.41 8.29058 14.5334 7.17399 15.9134 7.1782C17.2934 7.18241 18.41 8.30582 18.4057 9.68581L18.3737 20.1858C18.3721 20.7358 17.9207 21.1844 17.3707 21.1827C16.8207 21.181 16.3721 20.7297 16.3737 20.1797L16.4027 10.6797L14.9027 10.6751L14.8738 20.1751C14.8695 21.5551 15.9861 22.6785 17.3661 22.6827C18.7461 22.6869 19.8695 21.5703 19.8737 20.1903L19.9057 9.69038C19.9125 7.48039 18.1279 5.68495 15.918 5.67821C13.708 5.67147 11.9125 7.45601 11.9058 9.666L11.8677 22.1659C11.8584 25.2059 14.3109 27.6734 17.3509 27.6827C20.3909 27.6919 22.8584 25.2395 22.8676 22.1995L22.9027 10.6995L21.4027 10.695Z" fill="#0180FE"/>
</g>
<defs>
<clipPath id="clip0_891_10449">
<rect width="24" height="24" fill="white" transform="translate(0.103516 15.4141) rotate(-39.6345)"/>
</clipPath>
</defs>
</svg>
