<svg width="22" height="22" viewBox="0 0 22 22" fill="none" xmlns="http://www.w3.org/2000/svg">
<path d="M19.2487 9.16687C19.3691 9.1669 19.4883 9.14321 19.5995 9.09715C19.7108 9.0511 19.8118 8.98358 19.8969 8.89845C19.9821 8.81333 20.0496 8.71226 20.0956 8.60103C20.1417 8.4898 20.1654 8.37059 20.1654 8.2502V5.5002C20.1654 5.30786 20.105 5.12038 19.9925 4.96436C19.88 4.80834 19.7212 4.69169 19.5387 4.63098L11.2887 1.88098C11.1005 1.81832 10.8969 1.81832 10.7087 1.88098L2.45866 4.63098C2.27615 4.69169 2.1174 4.80834 2.00492 4.96436C1.89244 5.12038 1.83195 5.30786 1.83203 5.5002V8.2502C1.832 8.37059 1.85569 8.4898 1.90174 8.60103C1.9478 8.71226 2.01532 8.81333 2.10045 8.89845C2.18557 8.98358 2.28664 9.0511 2.39787 9.09715C2.5091 9.14321 2.62831 9.1669 2.7487 9.16687H3.66536V15.7524C3.13071 15.9408 2.66745 16.29 2.33919 16.7521C2.01094 17.2143 1.83378 17.7667 1.83203 18.3335V20.1669C1.832 20.2873 1.85569 20.4065 1.90174 20.5177C1.9478 20.6289 2.01532 20.73 2.10045 20.8151C2.18557 20.9002 2.28664 20.9678 2.39787 21.0138C2.5091 21.0599 2.62831 21.0836 2.7487 21.0835H19.2487C19.3691 21.0836 19.4883 21.0599 19.5995 21.0138C19.7108 20.9678 19.8118 20.9002 19.8969 20.8151C19.9821 20.73 20.0496 20.6289 20.0956 20.5177C20.1417 20.4065 20.1654 20.2873 20.1654 20.1669V18.3335C20.1636 17.7667 19.9865 17.2143 19.6582 16.7521C19.3299 16.29 18.8667 15.9408 18.332 15.7524V9.16687H19.2487ZM18.332 19.2502H3.66536V18.3335C3.66561 18.0905 3.76226 17.8575 3.93412 17.6856C4.10597 17.5138 4.33899 17.4171 4.58203 17.4169H17.4154C17.6584 17.4171 17.8914 17.5138 18.0633 17.6856C18.2351 17.8575 18.3318 18.0905 18.332 18.3335V19.2502ZM5.4987 15.5835V9.16687H7.33203V15.5835H5.4987ZM9.16536 15.5835V9.16687H12.832V15.5835H9.16536ZM14.6654 15.5835V9.16687H16.4987V15.5835H14.6654ZM3.66536 7.33353V6.16084L10.9987 3.71609L18.332 6.16084V7.33353H3.66536Z" fill="#00BAA3"/>
</svg>
