<svg width="24" height="24" viewBox="0 0 24 24" fill="none" xmlns="http://www.w3.org/2000/svg">
<circle cx="12" cy="12" r="11.5" fill="#DDEEFF" stroke="#0180FE"/>
<path d="M17.0333 8.4074C16.9636 8.3371 16.8806 8.2813 16.7893 8.24323C16.6979 8.20515 16.5998 8.18555 16.5008 8.18555C16.4018 8.18555 16.3038 8.20515 16.2124 8.24323C16.121 8.2813 16.038 8.3371 15.9683 8.4074L10.3808 14.0024L8.03332 11.6474C7.96093 11.5775 7.87547 11.5225 7.78183 11.4856C7.68819 11.4487 7.58819 11.4306 7.48756 11.4323C7.38692 11.4341 7.28762 11.4556 7.19531 11.4957C7.103 11.5358 7.0195 11.5938 6.94957 11.6661C6.87964 11.7385 6.82465 11.824 6.78775 11.9176C6.75085 12.0113 6.73275 12.1113 6.73449 12.2119C6.73623 12.3125 6.75778 12.4118 6.7979 12.5042C6.83802 12.5965 6.89593 12.68 6.96832 12.7499L9.84832 15.6299C9.91804 15.7002 10.001 15.756 10.0924 15.7941C10.1838 15.8321 10.2818 15.8517 10.3808 15.8517C10.4798 15.8517 10.5779 15.8321 10.6693 15.7941C10.7606 15.756 10.8436 15.7002 10.9133 15.6299L17.0333 9.5099C17.1094 9.43966 17.1702 9.35443 17.2118 9.25955C17.2533 9.16468 17.2748 9.06222 17.2748 8.95865C17.2748 8.85507 17.2533 8.75262 17.2118 8.65774C17.1702 8.56287 17.1094 8.47763 17.0333 8.4074Z" fill="#0180FE"/>
</svg>
