<svg width="20" height="20" viewBox="0 0 20 20" fill="none" xmlns="http://www.w3.org/2000/svg">
<path d="M9.9994 1.66602C8.90505 1.66602 7.82142 1.88156 6.81037 2.30035C5.79932 2.71914 4.88066 3.33297 4.10684 4.10679C2.54404 5.6696 1.66607 7.78921 1.66607 9.99935C1.65878 11.9236 2.32506 13.7898 3.5494 15.2743L1.88273 16.941C1.7671 17.0582 1.68877 17.207 1.65763 17.3687C1.62648 17.5303 1.64392 17.6976 1.70773 17.8493C1.77695 17.9993 1.88915 18.1253 2.03011 18.2113C2.17106 18.2974 2.3344 18.3396 2.4994 18.3327H9.9994C12.2095 18.3327 14.3292 17.4547 15.892 15.8919C17.4548 14.3291 18.3327 12.2095 18.3327 9.99935C18.3327 7.78921 17.4548 5.6696 15.892 4.10679C14.3292 2.54399 12.2095 1.66602 9.9994 1.66602V1.66602ZM9.9994 16.666H4.50773L5.28273 15.891C5.43794 15.7349 5.52506 15.5237 5.52506 15.3035C5.52506 15.0834 5.43794 14.8722 5.28273 14.716C4.19155 13.626 3.51205 12.1915 3.35998 10.6567C3.20791 9.12189 3.59269 7.58185 4.44876 6.29895C5.30483 5.01605 6.57923 4.06965 8.05483 3.62099C9.53043 3.17234 11.1159 3.24919 12.5412 3.83844C13.9665 4.4277 15.1434 5.49291 15.8714 6.85259C16.5994 8.21227 16.8335 9.7823 16.5337 11.2952C16.2339 12.8081 15.4188 14.1702 14.2273 15.1495C13.0359 16.1289 11.5417 16.6648 9.9994 16.666V16.666ZM14.1661 9.16602H5.83273C5.61172 9.16602 5.39976 9.25381 5.24348 9.41009C5.0872 9.56637 4.9994 9.77834 4.9994 9.99935C4.9994 10.2204 5.0872 10.4323 5.24348 10.5886C5.39976 10.7449 5.61172 10.8327 5.83273 10.8327H14.1661C14.3871 10.8327 14.599 10.7449 14.7553 10.5886C14.9116 10.4323 14.9994 10.2204 14.9994 9.99935C14.9994 9.77834 14.9116 9.56637 14.7553 9.41009C14.599 9.25381 14.3871 9.16602 14.1661 9.16602ZM12.4994 12.4993H7.4994C7.27839 12.4993 7.06642 12.5871 6.91014 12.7434C6.75386 12.8997 6.66607 13.1117 6.66607 13.3327C6.66607 13.5537 6.75386 13.7657 6.91014 13.9219C7.06642 14.0782 7.27839 14.166 7.4994 14.166H12.4994C12.7204 14.166 12.9324 14.0782 13.0887 13.9219C13.2449 13.7657 13.3327 13.5537 13.3327 13.3327C13.3327 13.1117 13.2449 12.8997 13.0887 12.7434C12.9324 12.5871 12.7204 12.4993 12.4994 12.4993ZM7.4994 7.49935H12.4994C12.7204 7.49935 12.9324 7.41155 13.0887 7.25527C13.2449 7.09899 13.3327 6.88703 13.3327 6.66602C13.3327 6.445 13.2449 6.23304 13.0887 6.07676C12.9324 5.92048 12.7204 5.83268 12.4994 5.83268H7.4994C7.27839 5.83268 7.06642 5.92048 6.91014 6.07676C6.75386 6.23304 6.66607 6.445 6.66607 6.66602C6.66607 6.88703 6.75386 7.09899 6.91014 7.25527C7.06642 7.41155 7.27839 7.49935 7.4994 7.49935V7.49935Z" fill="#003585"/>
</svg>
