<svg width="16" height="16" viewBox="0 0 16 16" fill="none" xmlns="http://www.w3.org/2000/svg">
<path d="M9.17773 7.25H4.67773C4.47882 7.25 4.28806 7.32902 4.1474 7.46967C4.00675 7.61032 3.92773 7.80109 3.92773 8C3.92773 8.19891 4.00675 8.38968 4.1474 8.53033C4.28806 8.67098 4.47882 8.75 4.67773 8.75H9.17773C9.37665 8.75 9.56741 8.67098 9.70806 8.53033C9.84872 8.38968 9.92773 8.19891 9.92773 8C9.92773 7.80109 9.84872 7.61032 9.70806 7.46967C9.56741 7.32902 9.37665 7.25 9.17773 7.25ZM12.1777 4.25H4.67773C4.47882 4.25 4.28806 4.32902 4.1474 4.46967C4.00675 4.61032 3.92773 4.80109 3.92773 5C3.92773 5.19891 4.00675 5.38968 4.1474 5.53033C4.28806 5.67098 4.47882 5.75 4.67773 5.75H12.1777C12.3766 5.75 12.5674 5.67098 12.7081 5.53033C12.8487 5.38968 12.9277 5.19891 12.9277 5C12.9277 4.80109 12.8487 4.61032 12.7081 4.46967C12.5674 4.32902 12.3766 4.25 12.1777 4.25ZM13.6777 0.5H3.17773C2.581 0.5 2.0087 0.737053 1.58674 1.15901C1.16479 1.58097 0.927734 2.15326 0.927734 2.75V10.25C0.927734 10.8467 1.16479 11.419 1.58674 11.841C2.0087 12.2629 2.581 12.5 3.17773 12.5H11.8702L14.6452 15.2825C14.7153 15.352 14.7984 15.407 14.8898 15.4443C14.9812 15.4817 15.079 15.5006 15.1777 15.5C15.2761 15.5025 15.3737 15.482 15.4627 15.44C15.5997 15.3837 15.7169 15.2882 15.7997 15.1654C15.8824 15.0426 15.927 14.8981 15.9277 14.75V2.75C15.9277 2.15326 15.6907 1.58097 15.2687 1.15901C14.8468 0.737053 14.2745 0.5 13.6777 0.5ZM14.4277 12.9425L12.7102 11.2175C12.6402 11.148 12.557 11.093 12.4657 11.0557C12.3743 11.0183 12.2764 10.9994 12.1777 11H3.17773C2.97882 11 2.78806 10.921 2.6474 10.7803C2.50675 10.6397 2.42773 10.4489 2.42773 10.25V2.75C2.42773 2.55109 2.50675 2.36032 2.6474 2.21967C2.78806 2.07902 2.97882 2 3.17773 2H13.6777C13.8766 2 14.0674 2.07902 14.2081 2.21967C14.3487 2.36032 14.4277 2.55109 14.4277 2.75V12.9425Z" fill="#0180FE"/>
</svg>
