<svg width="19" height="19" viewBox="0 0 19 19" fill="none" xmlns="http://www.w3.org/2000/svg">
<path d="M10.2695 8.75H5.76953C5.57062 8.75 5.37985 8.82902 5.2392 8.96967C5.09855 9.11032 5.01953 9.30109 5.01953 9.5C5.01953 9.69891 5.09855 9.88968 5.2392 10.0303C5.37985 10.171 5.57062 10.25 5.76953 10.25H10.2695C10.4684 10.25 10.6592 10.171 10.7999 10.0303C10.9405 9.88968 11.0195 9.69891 11.0195 9.5C11.0195 9.30109 10.9405 9.11032 10.7999 8.96967C10.6592 8.82902 10.4684 8.75 10.2695 8.75ZM13.2695 5.75H5.76953C5.57062 5.75 5.37985 5.82902 5.2392 5.96967C5.09855 6.11032 5.01953 6.30109 5.01953 6.5C5.01953 6.69891 5.09855 6.88968 5.2392 7.03033C5.37985 7.17098 5.57062 7.25 5.76953 7.25H13.2695C13.4684 7.25 13.6592 7.17098 13.7999 7.03033C13.9405 6.88968 14.0195 6.69891 14.0195 6.5C14.0195 6.30109 13.9405 6.11032 13.7999 5.96967C13.6592 5.82902 13.4684 5.75 13.2695 5.75ZM14.7695 2H4.26953C3.67279 2 3.1005 2.23705 2.67854 2.65901C2.25658 3.08097 2.01953 3.65326 2.01953 4.25V11.75C2.01953 12.3467 2.25658 12.919 2.67854 13.341C3.1005 13.7629 3.67279 14 4.26953 14H12.962L15.737 16.7825C15.8071 16.852 15.8902 16.907 15.9816 16.9443C16.073 16.9817 16.1708 17.0006 16.2695 17C16.3679 17.0025 16.4655 16.982 16.5545 16.94C16.6915 16.8837 16.8087 16.7882 16.8915 16.6654C16.9742 16.5426 17.0188 16.3981 17.0195 16.25V4.25C17.0195 3.65326 16.7825 3.08097 16.3605 2.65901C15.9386 2.23705 15.3663 2 14.7695 2ZM15.5195 14.4425L13.802 12.7175C13.732 12.648 13.6488 12.593 13.5575 12.5557C13.4661 12.5183 13.3682 12.4994 13.2695 12.5H4.26953C4.07062 12.5 3.87985 12.421 3.7392 12.2803C3.59855 12.1397 3.51953 11.9489 3.51953 11.75V4.25C3.51953 4.05109 3.59855 3.86032 3.7392 3.71967C3.87985 3.57902 4.07062 3.5 4.26953 3.5H14.7695C14.9684 3.5 15.1592 3.57902 15.2999 3.71967C15.4405 3.86032 15.5195 4.05109 15.5195 4.25V14.4425Z" fill="#0180FE"/>
</svg>
