<svg width="25" height="25" viewBox="0 0 25 25" fill="none" xmlns="http://www.w3.org/2000/svg">
<path d="M16.1376 8.87577C16.0446 8.78204 15.934 8.70765 15.8121 8.65688C15.6903 8.60611 15.5596 8.57997 15.4276 8.57997C15.2956 8.57997 15.1649 8.60611 15.043 8.65688C14.9211 8.70765 14.8105 8.78204 14.7176 8.87577L12.4276 11.1758L10.1376 8.87577C9.94927 8.68747 9.69387 8.58168 9.42757 8.58168C9.16127 8.58168 8.90587 8.68747 8.71757 8.87577C8.52927 9.06408 8.42348 9.31947 8.42348 9.58577C8.42348 9.85207 8.52927 10.1075 8.71757 10.2958L11.0176 12.5858L8.71757 14.8758C8.62384 14.9687 8.54945 15.0793 8.49868 15.2012C8.44791 15.3231 8.42177 15.4538 8.42177 15.5858C8.42177 15.7178 8.44791 15.8485 8.49868 15.9703C8.54945 16.0922 8.62384 16.2028 8.71757 16.2958C8.81053 16.3895 8.92113 16.4639 9.04299 16.5147C9.16485 16.5654 9.29556 16.5916 9.42757 16.5916C9.55958 16.5916 9.69029 16.5654 9.81215 16.5147C9.93401 16.4639 10.0446 16.3895 10.1376 16.2958L12.4276 13.9958L14.7176 16.2958C14.8105 16.3895 14.9211 16.4639 15.043 16.5147C15.1649 16.5654 15.2956 16.5916 15.4276 16.5916C15.5596 16.5916 15.6903 16.5654 15.8121 16.5147C15.934 16.4639 16.0446 16.3895 16.1376 16.2958C16.2313 16.2028 16.3057 16.0922 16.3565 15.9703C16.4072 15.8485 16.4334 15.7178 16.4334 15.5858C16.4334 15.4538 16.4072 15.3231 16.3565 15.2012C16.3057 15.0793 16.2313 14.9687 16.1376 14.8758L13.8376 12.5858L16.1376 10.2958C16.2313 10.2028 16.3057 10.0922 16.3565 9.97035C16.4072 9.84849 16.4334 9.71778 16.4334 9.58577C16.4334 9.45376 16.4072 9.32305 16.3565 9.2012C16.3057 9.07934 16.2313 8.96874 16.1376 8.87577ZM19.4976 5.51577C18.5751 4.56067 17.4717 3.79885 16.2516 3.27476C15.0316 2.75067 13.7194 2.47481 12.3916 2.46327C11.0638 2.45173 9.74699 2.70475 8.51803 3.20756C7.28907 3.71036 6.17255 4.4529 5.23362 5.39182C4.29469 6.33075 3.55216 7.44727 3.04935 8.67623C2.54654 9.9052 2.29353 11.222 2.30507 12.5498C2.3166 13.8776 2.59247 15.1898 3.11656 16.4098C3.64065 17.6299 4.40247 18.7333 5.35757 19.6558C6.28004 20.6109 7.38348 21.3727 8.60352 21.8968C9.82356 22.4209 11.1358 22.6967 12.4636 22.7083C13.7914 22.7198 15.1081 22.4668 16.3371 21.964C17.5661 21.4612 18.6826 20.7187 19.6215 19.7797C20.5604 18.8408 21.303 17.7243 21.8058 16.4953C22.3086 15.2663 22.5616 13.9496 22.5501 12.6218C22.5385 11.294 22.2627 9.98177 21.7386 8.76173C21.2145 7.54169 20.4527 6.43824 19.4976 5.51577ZM18.0876 18.2458C16.7796 19.5552 15.0581 20.3706 13.2164 20.5531C11.3746 20.7356 9.52658 20.2738 7.98709 19.2465C6.44761 18.2193 5.31193 16.69 4.77354 14.9193C4.23516 13.1485 4.32737 11.2459 5.03448 9.53556C5.74159 7.8252 7.01984 6.41292 8.65146 5.53933C10.2831 4.66575 12.1671 4.3849 13.9826 4.74465C15.798 5.10439 17.4326 6.08246 18.6078 7.51223C19.783 8.942 20.4261 10.735 20.4276 12.5858C20.4311 13.6371 20.2262 14.6786 19.8245 15.6502C19.4228 16.6217 18.8325 17.5039 18.0876 18.2458Z" fill="#DC3545"/>
</svg>
