<svg width="53" height="53" viewBox="0 0 53 53" fill="none" xmlns="http://www.w3.org/2000/svg">
<path d="M48.3638 26.4997C48.3638 26.2567 48.2313 26.0138 48.1651 25.7709C48.0628 25.3424 47.93 24.9217 47.7676 24.5122C47.6571 24.2472 47.5026 23.9822 47.3701 23.6951C47.2376 23.408 47.0388 23.0326 46.8401 22.7234C46.6413 22.4142 46.3763 22.2597 46.3763 22.083C46.3763 21.9063 45.9346 21.5309 45.6917 21.2659C45.4488 21.0009 45.228 20.8242 44.9851 20.6034L44.168 19.8747L43.373 19.3447C43.0609 19.1537 42.7363 18.984 42.4013 18.8367L41.5401 18.4392C41.1794 18.3056 40.8106 18.195 40.4359 18.108C40.1391 18.0207 39.8365 17.9543 39.5305 17.9092L39.0226 17.6663C38.1215 15.0628 36.4312 12.8049 34.187 11.2069C31.9429 9.60879 29.2563 8.75 26.5013 8.75C23.7463 8.75 21.0597 9.60879 18.8156 11.2069C16.5714 12.8049 14.8811 15.0628 13.9801 17.6663L13.5826 17.7767C13.2765 17.8218 12.9739 17.8882 12.6771 17.9755C12.3025 18.0625 11.9337 18.1731 11.573 18.3067L10.7117 18.7042C10.3768 18.8515 10.0521 19.0212 9.74005 19.2122L8.94505 19.8747L8.12797 20.5592C7.88505 20.7801 7.64214 20.9788 7.4213 21.2217C7.20047 21.4647 6.95755 21.7738 6.73672 22.0388C6.51589 22.3038 6.33922 22.5467 6.16255 22.8338C5.98589 23.1209 5.80922 23.4742 5.63255 23.8055C5.45589 24.1367 5.34547 24.3576 5.23505 24.6226C5.07261 25.0321 4.93977 25.4528 4.83755 25.8813C4.83755 26.1242 4.68297 26.3672 4.6388 26.6101C4.50135 27.3012 4.42743 28.0034 4.41797 28.708C4.42832 29.3822 4.4948 30.0544 4.61672 30.7176C4.61672 30.9384 4.72714 31.1371 4.7713 31.358C4.88045 31.7918 5.01315 32.2194 5.1688 32.6388L5.4338 33.2792C5.6282 33.7051 5.84948 34.1181 6.0963 34.5159L6.40547 35.0017C6.43724 35.0636 6.47418 35.1227 6.51589 35.1784L6.6263 35.333C7.6548 36.7043 8.98846 37.8174 10.5217 38.584C12.0548 39.3505 13.7455 39.7497 15.4596 39.7497H22.0846V36.7242C21.4137 37.1135 20.652 37.3191 19.8763 37.3205C18.6799 37.3093 17.5367 36.825 16.6963 35.9734C16.2928 35.556 15.9756 35.0632 15.7627 34.523C15.5499 33.9829 15.4456 33.4062 15.4559 32.8257C15.4661 32.2453 15.5907 31.6725 15.8225 31.1403C16.0543 30.608 16.3887 30.1267 16.8067 29.7238L23.4317 23.3197C24.256 22.5252 25.3565 22.0818 26.5013 22.083C27.6708 22.0879 28.7906 22.5565 29.6151 23.3859L36.2401 30.0109C37.0627 30.8384 37.5244 31.9578 37.5244 33.1247C37.5244 34.2915 37.0627 35.4109 36.2401 36.2384C35.4156 37.0678 34.2958 37.5364 33.1263 37.5413C32.3495 37.5486 31.5856 37.3424 30.918 36.9451V39.7497H37.543C39.2571 39.7497 40.9478 39.3505 42.481 38.584C44.0142 37.8174 45.3478 36.7043 46.3763 35.333L46.4867 35.2226C46.5284 35.1669 46.5654 35.1078 46.5971 35.0459L46.9063 34.5601C47.1531 34.1623 47.3744 33.7493 47.5688 33.3234L47.8338 32.683C47.9895 32.2636 48.1222 31.836 48.2313 31.4022C48.2313 31.1813 48.3417 30.9826 48.3859 30.7617C48.5103 30.084 48.5768 29.397 48.5846 28.708C48.5821 27.9665 48.5081 27.227 48.3638 26.4997Z" fill="#0180FE"/>
<path d="M28.0703 24.932C27.6575 24.5274 27.1025 24.3008 26.5244 24.3008C25.9464 24.3008 25.3914 24.5274 24.9786 24.932L18.3536 31.3362C18.1193 31.5296 17.9274 31.7692 17.7899 32.0401C17.6524 32.311 17.5723 32.6074 17.5545 32.9107C17.5368 33.2139 17.5819 33.5176 17.6868 33.8027C17.7918 34.0878 17.9545 34.3481 18.1647 34.5675C18.3749 34.7868 18.6281 34.9604 18.9085 35.0775C19.1888 35.1945 19.4903 35.2524 19.7941 35.2476C20.0979 35.2428 20.3974 35.1753 20.6739 35.0495C20.9504 34.9236 21.198 34.7421 21.4011 34.5162L24.294 31.7116V44.1666C24.294 44.7523 24.5267 45.314 24.9408 45.7282C25.355 46.1423 25.9167 46.375 26.5024 46.375C27.088 46.375 27.6497 46.1423 28.0639 45.7282C28.478 45.314 28.7107 44.7523 28.7107 44.1666V31.822L31.5594 34.6929C31.7647 34.8999 32.009 35.0642 32.2781 35.1763C32.5472 35.2884 32.8358 35.3461 33.1274 35.3461C33.4189 35.3461 33.7075 35.2884 33.9766 35.1763C34.2457 35.0642 34.49 34.8999 34.6953 34.6929C34.9023 34.4876 35.0665 34.2433 35.1787 33.9742C35.2908 33.7051 35.3485 33.4165 35.3485 33.125C35.3485 32.8334 35.2908 32.5448 35.1787 32.2757C35.0665 32.0066 34.9023 31.7623 34.6953 31.557L28.0703 24.932Z" fill="#0180FE"/>
</svg>
