<svg width="81" height="81" viewBox="0 0 81 81" fill="none" xmlns="http://www.w3.org/2000/svg">
<circle opacity="0.1" cx="40.5" cy="40.5" r="40.5" fill="#00BAA3"/>
<path d="M53.125 24.25C51.965 24.2509 50.8527 24.7122 50.0324 25.5324C49.2122 26.3527 48.7509 27.465 48.75 28.625C48.75 29.2498 48.8865 29.843 49.1245 30.3838L45.7033 34.232C44.541 33.4298 43.1622 33.0001 41.75 33C40.455 33 39.258 33.378 38.2168 33.9905L34.2373 30.0128L34.197 30.053C34.54 29.3565 34.75 28.5813 34.75 27.75C34.75 26.7117 34.4421 25.6966 33.8652 24.8333C33.2883 23.9699 32.4684 23.297 31.5091 22.8996C30.5498 22.5023 29.4942 22.3983 28.4758 22.6009C27.4574 22.8035 26.5219 23.3035 25.7877 24.0377C25.0535 24.7719 24.5535 25.7074 24.3509 26.7258C24.1483 27.7442 24.2523 28.7998 24.6496 29.7591C25.047 30.7184 25.7199 31.5383 26.5833 32.1152C27.4466 32.6921 28.4617 33 29.5 33C30.3313 33 31.1048 32.79 31.803 32.447L31.7628 32.4873L35.7423 36.465C35.0994 37.5326 34.7566 38.7538 34.75 40C34.75 41.7448 35.415 43.3233 36.4738 44.5518L31.964 49.0598C31.4585 48.8574 30.9194 48.7523 30.375 48.75C27.9635 48.75 26 50.7118 26 53.125C26 55.5383 27.9635 57.5 30.375 57.5C32.7865 57.5 34.75 55.5383 34.75 53.125C34.75 52.5633 34.6345 52.0295 34.4403 51.5343L39.4068 46.5678C40.1435 46.8303 40.924 47 41.75 47C45.6105 47 48.75 43.8605 48.75 40C48.75 38.887 48.4648 37.8493 48.001 36.913L51.7057 32.7428C52.1537 32.8968 52.6263 33 53.125 33C55.5383 33 57.5 31.0383 57.5 28.625C57.5 26.2118 55.5383 24.25 53.125 24.25ZM41.75 43.5C39.8198 43.5 38.25 41.9303 38.25 40C38.25 38.0698 39.8198 36.5 41.75 36.5C43.6803 36.5 45.25 38.0698 45.25 40C45.25 41.9303 43.6803 43.5 41.75 43.5Z" fill="#00BAA3"/>
</svg>
