<svg width="81" height="81" viewBox="0 0 81 81" fill="none" xmlns="http://www.w3.org/2000/svg">
<circle opacity="0.1" cx="40.5" cy="40.5" r="40.5" fill="#F87F2D"/>
<g clip-path="url(#clip0_1331_7825)">
<path d="M21.1041 33.0135L38.5378 27.6058C39.4878 27.3111 40.5128 27.3111 41.4622 27.6058L58.8966 33.0135C60.3678 33.4697 60.3678 35.4341 58.8966 35.8903L55.8572 36.833C56.5241 37.6653 56.9341 38.6806 56.9747 39.7925C57.5766 40.1408 58.0003 40.7693 58.0003 41.5195C58.0003 42.1998 57.6453 42.7721 57.1341 43.1381L58.7297 50.3871C58.8684 51.0175 58.3934 51.6157 57.7541 51.6157L54.2472 51.6157C53.6072 51.6157 53.1322 51.0175 53.2709 50.3871L54.8666 43.1381C54.3553 42.7721 54.0003 42.1998 54.0003 41.5195C54.0003 40.7895 54.4047 40.1786 54.9791 39.824C54.9316 38.8762 54.4516 38.0383 53.6859 37.5069L41.4628 41.2987C40.8966 41.4741 39.8103 41.6931 38.5384 41.2987L21.1041 35.8909C19.6322 35.4341 19.6322 33.4704 21.1041 33.0135ZM37.9509 43.2289C39.7341 43.7817 41.2534 43.4763 42.0503 43.2289L51.1141 40.4178L52.0003 47.5772C52.0003 49.8078 46.6278 51.6157 40.0003 51.6157C33.3728 51.6157 28.0003 49.8078 28.0003 47.5772L28.8866 40.4172L37.9509 43.2289Z" fill="#F87F2D"/>
</g>
<defs>
<clipPath id="clip0_1331_7825">
<rect width="40" height="32.3077" fill="white" transform="matrix(-1 8.74228e-08 8.74228e-08 1 60 23.3457)"/>
</clipPath>
</defs>
</svg>
