<svg width="22" height="22" viewBox="0 0 22 22" fill="none" xmlns="http://www.w3.org/2000/svg">
<path d="M6.41536 13.7507H9.16536C9.40848 13.7507 9.64164 13.6541 9.81355 13.4822C9.98545 13.3103 10.082 13.0771 10.082 12.834C10.082 12.5909 9.98545 12.3577 9.81355 12.1858C9.64164 12.0139 9.40848 11.9173 9.16536 11.9173H6.41536C6.17225 11.9173 5.93909 12.0139 5.76718 12.1858C5.59527 12.3577 5.4987 12.5909 5.4987 12.834C5.4987 13.0771 5.59527 13.3103 5.76718 13.4822C5.93909 13.6541 6.17225 13.7507 6.41536 13.7507ZM17.4154 4.58398H4.58203C3.85269 4.58398 3.15321 4.87372 2.63749 5.38944C2.12176 5.90517 1.83203 6.60464 1.83203 7.33398V15.584C1.83203 16.3133 2.12176 17.0128 2.63749 17.5285C3.15321 18.0443 3.85269 18.334 4.58203 18.334H17.4154C18.1447 18.334 18.8442 18.0443 19.3599 17.5285C19.8756 17.0128 20.1654 16.3133 20.1654 15.584V7.33398C20.1654 6.60464 19.8756 5.90517 19.3599 5.38944C18.8442 4.87372 18.1447 4.58398 17.4154 4.58398ZM18.332 15.584C18.332 15.8271 18.2355 16.0603 18.0635 16.2322C17.8916 16.4041 17.6585 16.5007 17.4154 16.5007H4.58203C4.33892 16.5007 4.10576 16.4041 3.93385 16.2322C3.76194 16.0603 3.66536 15.8271 3.66536 15.584V10.084H18.332V15.584ZM18.332 8.25065H3.66536V7.33398C3.66536 7.09087 3.76194 6.85771 3.93385 6.6858C4.10576 6.5139 4.33892 6.41732 4.58203 6.41732H17.4154C17.6585 6.41732 17.8916 6.5139 18.0635 6.6858C18.2355 6.85771 18.332 7.09087 18.332 7.33398V8.25065Z" fill="#999999"/>
</svg>
