<svg width="18" height="18" viewBox="0 0 18 18" fill="none" xmlns="http://www.w3.org/2000/svg">
<path d="M15 4.5H12V3.75C12 3.15326 11.7629 2.58097 11.341 2.15901C10.919 1.73705 10.3467 1.5 9.75 1.5H8.25C7.65326 1.5 7.08097 1.73705 6.65901 2.15901C6.23705 2.58097 6 3.15326 6 3.75V4.5H3C2.80109 4.5 2.61032 4.57902 2.46967 4.71967C2.32902 4.86032 2.25 5.05109 2.25 5.25C2.25 5.44891 2.32902 5.63968 2.46967 5.78033C2.61032 5.92098 2.80109 6 3 6H3.75V14.25C3.75 14.8467 3.98705 15.419 4.40901 15.841C4.83097 16.2629 5.40326 16.5 6 16.5H12C12.5967 16.5 13.169 16.2629 13.591 15.841C14.0129 15.419 14.25 14.8467 14.25 14.25V6H15C15.1989 6 15.3897 5.92098 15.5303 5.78033C15.671 5.63968 15.75 5.44891 15.75 5.25C15.75 5.05109 15.671 4.86032 15.5303 4.71967C15.3897 4.57902 15.1989 4.5 15 4.5ZM7.5 3.75C7.5 3.55109 7.57902 3.36032 7.71967 3.21967C7.86032 3.07902 8.05109 3 8.25 3H9.75C9.94891 3 10.1397 3.07902 10.2803 3.21967C10.421 3.36032 10.5 3.55109 10.5 3.75V4.5H7.5V3.75ZM12.75 14.25C12.75 14.4489 12.671 14.6397 12.5303 14.7803C12.3897 14.921 12.1989 15 12 15H6C5.80109 15 5.61032 14.921 5.46967 14.7803C5.32902 14.6397 5.25 14.4489 5.25 14.25V6H12.75V14.25Z" fill="#DC3545"/>
</svg>
