<svg width="22" height="22" viewBox="0 0 22 22" fill="none" xmlns="http://www.w3.org/2000/svg">
<path d="M11.9802 11.0007H7.39687C7.15376 11.0007 6.9206 11.0972 6.74869 11.2691C6.57679 11.441 6.48021 11.6742 6.48021 11.9173C6.48021 12.1604 6.57679 12.3936 6.74869 12.5655C6.9206 12.7374 7.15376 12.834 7.39687 12.834H11.9802C12.2233 12.834 12.4565 12.7374 12.6284 12.5655C12.8003 12.3936 12.8969 12.1604 12.8969 11.9173C12.8969 11.6742 12.8003 11.441 12.6284 11.2691C12.4565 11.0972 12.2233 11.0007 11.9802 11.0007ZM12.8969 18.334H5.56354C5.32043 18.334 5.08727 18.2374 4.91536 18.0655C4.74345 17.8936 4.64688 17.6604 4.64688 17.4173V4.58398C4.64688 4.34087 4.74345 4.10771 4.91536 3.9358C5.08727 3.7639 5.32043 3.66732 5.56354 3.66732H10.1469V6.41732C10.1469 7.14666 10.4366 7.84614 10.9523 8.36186C11.4681 8.87759 12.1675 9.16732 12.8969 9.16732H15.6469V10.084C15.6469 10.3271 15.7435 10.5603 15.9154 10.7322C16.0873 10.9041 16.3204 11.0007 16.5635 11.0007C16.8067 11.0007 17.0398 10.9041 17.2117 10.7322C17.3836 10.5603 17.4802 10.3271 17.4802 10.084V8.25065C17.4842 8.23253 17.4842 8.21377 17.4802 8.19565C17.4724 8.11021 17.4508 8.02661 17.416 7.94815V7.86565C17.372 7.7714 17.3132 7.68476 17.2419 7.60898L11.7419 2.10898C11.6641 2.03589 11.5741 1.97695 11.476 1.93482C11.476 1.93482 11.4302 1.93482 11.4027 1.93482C11.3124 1.88255 11.2128 1.8483 11.1094 1.83398H5.60938C4.88003 1.83398 4.18056 2.12372 3.66483 2.63944C3.14911 3.15517 2.85938 3.85464 2.85938 4.58398V17.4173C2.85938 18.1467 3.14911 18.8461 3.66483 19.3619C4.18056 19.8776 4.88003 20.1673 5.60938 20.1673H12.9427C13.1858 20.1673 13.419 20.0707 13.5909 19.8988C13.7628 19.7269 13.8594 19.4938 13.8594 19.2507C13.8594 19.0075 13.7628 18.7744 13.5909 18.6025C13.419 18.4306 13.1858 18.334 12.9427 18.334H12.8969ZM11.9802 4.95982L14.3452 7.33398H12.8969C12.6538 7.33398 12.4206 7.23741 12.2487 7.0655C12.0768 6.89359 11.9802 6.66043 11.9802 6.41732V4.95982ZM17.086 18.5998C17.0425 18.5604 16.9966 18.5237 16.9485 18.4898C16.8478 18.4243 16.736 18.3777 16.6185 18.3523C16.4713 18.3228 16.319 18.33 16.1752 18.3731C16.0313 18.4163 15.9003 18.4941 15.7935 18.5998C15.7076 18.685 15.6394 18.7864 15.5929 18.8981C15.5464 19.0098 15.5224 19.1296 15.5224 19.2507C15.5224 19.3717 15.5464 19.4915 15.5929 19.6032C15.6394 19.7149 15.7076 19.8163 15.7935 19.9015C15.9643 20.0708 16.1947 20.1663 16.4352 20.1673C16.5861 20.1681 16.7349 20.1316 16.8683 20.061C17.0017 19.9905 17.1156 19.8881 17.2 19.7629C17.2843 19.6378 17.3364 19.4938 17.3517 19.3436C17.3671 19.1935 17.3451 19.0419 17.2877 18.9023C17.2379 18.7909 17.1697 18.6887 17.086 18.5998ZM11.9802 14.6673H7.39687C7.15376 14.6673 6.9206 14.7639 6.74869 14.9358C6.57679 15.1077 6.48021 15.3409 6.48021 15.584C6.48021 15.8271 6.57679 16.0603 6.74869 16.2322C6.9206 16.4041 7.15376 16.5007 7.39687 16.5007H11.9802C12.2233 16.5007 12.4565 16.4041 12.6284 16.2322C12.8003 16.0603 12.8969 15.8271 12.8969 15.584C12.8969 15.3409 12.8003 15.1077 12.6284 14.9358C12.4565 14.7639 12.2233 14.6673 11.9802 14.6673ZM16.4352 11.9173C15.9522 11.917 15.4776 12.0439 15.0592 12.2853C14.6408 12.5267 14.2934 12.874 14.0519 13.2923C13.9917 13.397 13.9527 13.5126 13.9372 13.6324C13.9217 13.7522 13.9299 13.8739 13.9614 13.9905C13.9929 14.1071 14.047 14.2164 14.1207 14.312C14.1945 14.4077 14.2863 14.488 14.391 14.5482C14.4958 14.6083 14.6113 14.6473 14.7311 14.6628C14.8509 14.6784 14.9726 14.6702 15.0892 14.6387C15.2058 14.6072 15.3151 14.553 15.4108 14.4793C15.5065 14.4056 15.5867 14.3137 15.6469 14.209C15.7274 14.0694 15.8434 13.9536 15.983 13.8731C16.1226 13.7927 16.281 13.7504 16.4421 13.7507C16.6033 13.7509 16.7615 13.7936 16.9009 13.8745C17.0402 13.9554 17.1558 14.0716 17.236 14.2114C17.3161 14.3512 17.358 14.5096 17.3574 14.6708C17.3568 14.8319 17.3137 14.9901 17.2325 15.1292C17.1513 15.2684 17.0348 15.3838 16.8949 15.4636C16.7549 15.5434 16.5963 15.585 16.4352 15.584C16.1921 15.584 15.9589 15.6806 15.787 15.8525C15.6151 16.0244 15.5185 16.2575 15.5185 16.5007C15.5185 16.7438 15.6151 16.9769 15.787 17.1488C15.9589 17.3207 16.1921 17.4173 16.4352 17.4173C17.1646 17.4173 17.864 17.1276 18.3798 16.6119C18.8955 16.0961 19.1852 15.3967 19.1852 14.6673C19.1852 13.938 18.8955 13.2385 18.3798 12.7228C17.864 12.207 17.1646 11.9173 16.4352 11.9173ZM7.39687 9.16732H8.31354C8.55666 9.16732 8.78981 9.07074 8.96172 8.89883C9.13363 8.72692 9.23021 8.49377 9.23021 8.25065C9.23021 8.00754 9.13363 7.77438 8.96172 7.60247C8.78981 7.43056 8.55666 7.33398 8.31354 7.33398H7.39687C7.15376 7.33398 6.9206 7.43056 6.74869 7.60247C6.57679 7.77438 6.48021 8.00754 6.48021 8.25065C6.48021 8.49377 6.57679 8.72692 6.74869 8.89883C6.9206 9.07074 7.15376 9.16732 7.39687 9.16732Z" fill="#FFBD27"/>
</svg>
