<svg width="24" height="24" viewBox="0 0 24 24" fill="none" xmlns="http://www.w3.org/2000/svg">
<path d="M17.5 13.2601C18.6582 13.2696 19.7837 12.8768 20.6844 12.1487C21.5852 11.4206 22.2052 10.4024 22.4386 9.26799C22.6721 8.13356 22.5044 6.95327 21.9643 5.9287C21.4243 4.90413 20.5452 4.09884 19.4774 3.65034C18.4095 3.20185 17.2191 3.13798 16.1094 3.46964C14.9997 3.8013 14.0396 4.50792 13.393 5.46882C12.7464 6.42972 12.4534 7.5853 12.5641 8.73819C12.6748 9.89109 13.1824 10.9698 14 11.7901C14.9281 12.7211 16.1855 13.2492 17.5 13.2601ZM19.62 10.3801C19.1818 10.8148 18.6201 11.1038 18.0117 11.2076C17.4032 11.3113 16.7775 11.2249 16.22 10.9601L20.22 6.96009C20.4869 7.52199 20.5726 8.15299 20.4651 8.76571C20.3576 9.37844 20.0623 9.94259 19.62 10.3801ZM15.38 6.14009C15.9421 5.57732 16.7046 5.26079 17.5 5.26009C17.9436 5.26422 18.3808 5.36668 18.78 5.56009L14.78 9.56009C14.5131 8.99818 14.4274 8.36719 14.5349 7.75446C14.6424 7.14173 14.9377 6.57758 15.38 6.14009ZM20.5 14.2601C20.2348 14.2601 19.9804 14.3654 19.7929 14.553C19.6054 14.7405 19.5 14.9949 19.5 15.2601V19.2601C19.5 19.5253 19.3946 19.7797 19.2071 19.9672C19.0196 20.1547 18.7652 20.2601 18.5 20.2601H4.5C4.23478 20.2601 3.98043 20.1547 3.79289 19.9672C3.60536 19.7797 3.5 19.5253 3.5 19.2601V9.67009L9.38 15.5501C9.93962 16.1104 10.6981 16.4267 11.49 16.4301C11.8927 16.4311 12.2915 16.3511 12.6625 16.1948C13.0336 16.0384 13.3695 15.809 13.65 15.5201C13.8302 15.3336 13.931 15.0844 13.931 14.8251C13.931 14.5657 13.8302 14.3166 13.65 14.1301C13.5569 14.0348 13.4456 13.9592 13.3229 13.9075C13.2001 13.8558 13.0682 13.8292 12.935 13.8292C12.8018 13.8292 12.6699 13.8558 12.5471 13.9075C12.4244 13.9592 12.3131 14.0348 12.22 14.1301C12.0331 14.3133 11.7818 14.4159 11.52 14.4159C11.2582 14.4159 11.0069 14.3133 10.82 14.1301L4.91 8.26009H9.5C9.76522 8.26009 10.0196 8.15473 10.2071 7.96719C10.3946 7.77966 10.5 7.5253 10.5 7.26009C10.5 6.99487 10.3946 6.74051 10.2071 6.55298C10.0196 6.36544 9.76522 6.26009 9.5 6.26009H4.5C3.70435 6.26009 2.94129 6.57616 2.37868 7.13876C1.81607 7.70137 1.5 8.46444 1.5 9.26009V19.2601C1.5 20.0557 1.81607 20.8188 2.37868 21.3814C2.94129 21.944 3.70435 22.2601 4.5 22.2601H18.5C19.2956 22.2601 20.0587 21.944 20.6213 21.3814C21.1839 20.8188 21.5 20.0557 21.5 19.2601V15.2601C21.5 14.9949 21.3946 14.7405 21.2071 14.553C21.0196 14.3654 20.7652 14.2601 20.5 14.2601Z" fill="#999999"/>
</svg>
