<svg width="149" height="199" viewBox="0 0 149 199" fill="none" xmlns="http://www.w3.org/2000/svg">
<g clip-path="url(#clip0_1331_7681)">
<path d="M146.249 198.909C147.707 198.909 148.889 197.727 148.889 196.269C148.889 194.811 147.707 193.629 146.249 193.629C144.791 193.629 143.609 194.811 143.609 196.269C143.609 197.727 144.791 198.909 146.249 198.909Z" fill="#3B82F6"/>
<path d="M122.312 198.909C123.77 198.909 124.952 197.727 124.952 196.269C124.952 194.811 123.77 193.629 122.312 193.629C120.854 193.629 119.672 194.811 119.672 196.269C119.672 197.727 120.854 198.909 122.312 198.909Z" fill="#3B82F6"/>
<path d="M98.3822 198.909C98.9067 198.911 99.4201 198.758 99.8572 198.468C100.294 198.178 100.636 197.764 100.838 197.28C101.04 196.796 101.094 196.263 100.993 195.749C100.891 195.234 100.64 194.761 100.27 194.389C99.8994 194.018 99.4273 193.764 98.913 193.661C98.3986 193.558 97.8653 193.61 97.3805 193.81C96.8957 194.01 96.4812 194.35 96.1896 194.786C95.8979 195.222 95.7422 195.735 95.7422 196.259C95.7422 196.96 96.0201 197.633 96.5149 198.13C97.0097 198.626 97.6811 198.907 98.3822 198.909V198.909Z" fill="#3B82F6"/>
<path d="M74.4508 198.909C74.9749 198.909 75.4873 198.754 75.9231 198.463C76.3589 198.172 76.6985 197.758 76.899 197.274C77.0996 196.789 77.1521 196.256 77.0498 195.742C76.9476 195.228 76.6952 194.756 76.3246 194.386C75.954 194.015 75.4818 193.763 74.9678 193.66C74.4537 193.558 73.9209 193.611 73.4366 193.811C72.9524 194.012 72.5386 194.351 72.2474 194.787C71.9563 195.223 71.8008 195.735 71.8008 196.259C71.8008 196.607 71.8693 196.952 72.0024 197.274C72.1356 197.595 72.3308 197.887 72.5769 198.133C72.823 198.379 73.1151 198.575 73.4366 198.708C73.7582 198.841 74.1028 198.909 74.4508 198.909V198.909Z" fill="#3B82F6"/>
<path d="M50.5111 198.909C51.9691 198.909 53.1511 197.727 53.1511 196.269C53.1511 194.811 51.9691 193.629 50.5111 193.629C49.0531 193.629 47.8711 194.811 47.8711 196.269C47.8711 197.727 49.0531 198.909 50.5111 198.909Z" fill="#3B82F6"/>
<path d="M27.5901 198.594C28.9386 198.04 29.5823 196.497 29.0279 195.149C28.4735 193.8 26.9308 193.157 25.5823 193.711C24.2338 194.265 23.5901 195.808 24.1445 197.156C24.6989 198.505 26.2416 199.149 27.5901 198.594Z" fill="#3B82F6"/>
<path d="M2.65212 193.66C2.12715 193.658 1.61349 193.812 1.17617 194.103C0.738848 194.393 0.397631 194.807 0.195821 195.291C-0.0059898 195.776 -0.0593093 196.31 0.0426225 196.825C0.144554 197.34 0.39712 197.813 0.768331 198.184C1.13954 198.555 1.6126 198.808 2.12758 198.91C2.64256 199.012 3.17628 198.958 3.66091 198.756C4.14554 198.555 4.55933 198.214 4.84975 197.776C5.14018 197.339 5.29411 196.825 5.29213 196.3C5.2895 195.601 5.01054 194.931 4.51601 194.436C4.02149 193.942 3.35148 193.663 2.65212 193.66V193.66Z" fill="#3B82F6"/>
<path d="M146.249 177.499C147.707 177.499 148.889 176.317 148.889 174.859C148.889 173.401 147.707 172.219 146.249 172.219C144.791 172.219 143.609 173.401 143.609 174.859C143.609 176.317 144.791 177.499 146.249 177.499Z" fill="#3B82F6"/>
<path d="M122.312 177.499C123.77 177.499 124.952 176.317 124.952 174.859C124.952 173.401 123.77 172.219 122.312 172.219C120.854 172.219 119.672 173.401 119.672 174.859C119.672 176.317 120.854 177.499 122.312 177.499Z" fill="#3B82F6"/>
<path d="M98.3822 177.499C98.9072 177.501 99.421 177.347 99.8583 177.057C100.296 176.766 100.637 176.353 100.839 175.868C101.04 175.383 101.094 174.85 100.992 174.335C100.89 173.82 100.637 173.347 100.266 172.975C99.8949 172.604 99.4217 172.352 98.9068 172.25C98.3918 172.148 97.8582 172.201 97.3736 172.403C96.8889 172.605 96.4751 172.946 96.1847 173.383C95.8943 173.821 95.7402 174.334 95.7422 174.859C95.7448 175.559 96.0239 176.229 96.5185 176.723C97.013 177.218 97.6829 177.497 98.3822 177.499V177.499Z" fill="#3B82F6"/>
<path d="M74.4508 177.499C74.9754 177.499 75.4881 177.344 75.9241 177.052C76.3601 176.76 76.6998 176.346 76.9 175.861C77.1003 175.376 77.1522 174.843 77.0491 174.329C76.946 173.814 76.6927 173.342 76.3211 172.972C75.9495 172.602 75.4763 172.35 74.9616 172.249C74.4469 172.148 73.9138 172.202 73.4297 172.404C72.9457 172.606 72.5326 172.947 72.2426 173.384C71.9526 173.821 71.7988 174.335 71.8008 174.859C71.8008 175.207 71.8694 175.551 72.0027 175.872C72.136 176.193 72.3313 176.484 72.5775 176.73C72.8237 176.975 73.1159 177.169 73.4374 177.301C73.7589 177.433 74.1033 177.501 74.4508 177.499V177.499Z" fill="#3B82F6"/>
<path d="M50.5111 177.499C51.9691 177.499 53.1511 176.317 53.1511 174.859C53.1511 173.401 51.9691 172.219 50.5111 172.219C49.0531 172.219 47.8711 173.401 47.8711 174.859C47.8711 176.317 49.0531 177.499 50.5111 177.499Z" fill="#3B82F6"/>
<path d="M27.5901 177.192C28.9386 176.638 29.5823 175.095 29.0279 173.746C28.4735 172.398 26.9308 171.754 25.5823 172.309C24.2338 172.863 23.5901 174.406 24.1445 175.754C24.699 177.103 26.2416 177.746 27.5901 177.192Z" fill="#3B82F6"/>
<path d="M2.65004 177.499C3.17459 177.499 3.68731 177.344 4.12331 177.052C4.55931 176.76 4.89899 176.346 5.09926 175.861C5.29954 175.376 5.3515 174.843 5.24843 174.329C5.14537 173.814 4.89189 173.342 4.52028 172.972C4.14867 172.602 3.67561 172.35 3.16091 172.249C2.6462 172.148 2.11309 172.202 1.62905 172.404C1.145 172.606 0.731771 172.947 0.441791 173.384C0.151812 173.821 -0.00196055 174.335 1.88721e-05 174.859C1.63788e-05 175.207 0.0686259 175.551 0.201923 175.872C0.33522 176.193 0.530667 176.484 0.776874 176.73C1.02308 176.975 1.31528 177.169 1.63674 177.301C1.95819 177.433 2.30251 177.501 2.65004 177.499Z" fill="#3B82F6"/>
<path d="M146.249 156.089C147.707 156.089 148.889 154.907 148.889 153.449C148.889 151.991 147.707 150.809 146.249 150.809C144.791 150.809 143.609 151.991 143.609 153.449C143.609 154.907 144.791 156.089 146.249 156.089Z" fill="#3B82F6"/>
<path d="M122.312 156.089C123.77 156.089 124.952 154.907 124.952 153.449C124.952 151.991 123.77 150.809 122.312 150.809C120.854 150.809 119.672 151.991 119.672 153.449C119.672 154.907 120.854 156.089 122.312 156.089Z" fill="#3B82F6"/>
<path d="M98.3822 156.101C98.9067 156.103 99.4201 155.949 99.8572 155.659C100.294 155.369 100.636 154.956 100.838 154.472C101.04 153.988 101.094 153.455 100.993 152.94C100.891 152.425 100.64 151.952 100.27 151.581C99.8994 151.209 99.4273 150.956 98.913 150.852C98.3986 150.749 97.8653 150.801 97.3805 151.002C96.8957 151.202 96.4812 151.541 96.1896 151.977C95.8979 152.414 95.7422 152.926 95.7422 153.451C95.7422 154.152 96.0201 154.824 96.5149 155.321C97.0097 155.818 97.6811 156.098 98.3822 156.101V156.101Z" fill="#3B82F6"/>
<path d="M74.4508 156.101C74.9749 156.101 75.4873 155.945 75.9231 155.654C76.3589 155.363 76.6985 154.949 76.899 154.465C77.0996 153.981 77.1521 153.448 77.0498 152.934C76.9476 152.42 76.6952 151.948 76.3246 151.577C75.954 151.206 75.4818 150.954 74.9678 150.852C74.4537 150.749 73.9209 150.802 73.4366 151.003C72.9524 151.203 72.5386 151.543 72.2474 151.979C71.9563 152.414 71.8008 152.927 71.8008 153.451C71.8008 153.799 71.8693 154.143 72.0024 154.465C72.1356 154.786 72.3308 155.079 72.5769 155.325C72.823 155.571 73.1151 155.766 73.4366 155.899C73.7582 156.032 74.1028 156.101 74.4508 156.101V156.101Z" fill="#3B82F6"/>
<path d="M50.5111 156.089C51.9691 156.089 53.1511 154.907 53.1511 153.449C53.1511 151.991 51.9691 150.809 50.5111 150.809C49.0531 150.809 47.8711 151.991 47.8711 153.449C47.8711 154.907 49.0531 156.089 50.5111 156.089Z" fill="#3B82F6"/>
<path d="M27.5901 155.792C28.9386 155.237 29.5823 153.694 29.0279 152.346C28.4735 150.997 26.9308 150.354 25.5823 150.908C24.2338 151.463 23.5901 153.005 24.1445 154.354C24.6989 155.702 26.2416 156.346 27.5901 155.792Z" fill="#3B82F6"/>
<path d="M2.65002 156.101C3.17414 156.101 3.68652 155.945 4.12231 155.654C4.5581 155.363 4.89769 154.949 5.09827 154.465C5.29884 153.981 5.3514 153.448 5.24915 152.934C5.14689 152.42 4.89453 151.948 4.52393 151.577C4.15332 151.206 3.68104 150.954 3.16699 150.852C2.65294 150.749 2.12021 150.802 1.63599 151.003C1.15176 151.203 0.737841 151.543 0.446655 151.979C0.15547 152.414 0 152.927 0 153.451C0 154.154 0.279274 154.828 0.776245 155.325C1.27322 155.822 1.9472 156.101 2.65002 156.101V156.101Z" fill="#3B82F6"/>
<path d="M146.249 134.69C147.707 134.69 148.889 133.508 148.889 132.05C148.889 130.592 147.707 129.41 146.249 129.41C144.791 129.41 143.609 130.592 143.609 132.05C143.609 133.508 144.791 134.69 146.249 134.69Z" fill="#3B82F6"/>
<path d="M122.312 134.69C123.77 134.69 124.952 133.508 124.952 132.05C124.952 130.592 123.77 129.41 122.312 129.41C120.854 129.41 119.672 130.592 119.672 132.05C119.672 133.508 120.854 134.69 122.312 134.69Z" fill="#3B82F6"/>
<path d="M98.3822 134.659C98.9072 134.661 99.421 134.507 99.8583 134.217C100.296 133.927 100.637 133.513 100.839 133.028C101.04 132.543 101.094 132.01 100.992 131.495C100.89 130.98 100.637 130.507 100.266 130.136C99.8949 129.764 99.4217 129.512 98.9068 129.41C98.3918 129.308 97.8582 129.361 97.3736 129.563C96.8889 129.765 96.4751 130.106 96.1847 130.543C95.8943 130.981 95.7402 131.494 95.7422 132.019C95.7448 132.719 96.0239 133.389 96.5185 133.883C97.013 134.378 97.6829 134.657 98.3822 134.659V134.659Z" fill="#3B82F6"/>
<path d="M74.4508 134.659C74.9754 134.659 75.4881 134.504 75.9241 134.212C76.3601 133.92 76.6998 133.506 76.9 133.021C77.1003 132.536 77.1522 132.003 77.0491 131.489C76.946 130.974 76.6927 130.502 76.3211 130.132C75.9495 129.762 75.4763 129.51 74.9616 129.409C74.4469 129.308 73.9138 129.362 73.4297 129.564C72.9457 129.766 72.5326 130.107 72.2426 130.544C71.9526 130.981 71.7988 131.495 71.8008 132.019C71.8008 132.367 71.8694 132.711 72.0027 133.032C72.136 133.353 72.3313 133.644 72.5775 133.89C72.8237 134.135 73.1159 134.329 73.4374 134.461C73.7589 134.593 74.1033 134.661 74.4508 134.659V134.659Z" fill="#3B82F6"/>
<path d="M50.5111 134.69C51.9691 134.69 53.1511 133.508 53.1511 132.05C53.1511 130.592 51.9691 129.41 50.5111 129.41C49.0531 129.41 47.8711 130.592 47.8711 132.05C47.8711 133.508 49.0531 134.69 50.5111 134.69Z" fill="#3B82F6"/>
<path d="M27.594 134.389C28.9425 133.835 29.5863 132.292 29.0318 130.944C28.4774 129.595 26.9347 128.951 25.5862 129.506C24.2377 130.06 23.594 131.603 24.1484 132.951C24.7029 134.3 26.2455 134.944 27.594 134.389Z" fill="#3B82F6"/>
<path d="M2.65004 134.659C3.17459 134.659 3.68731 134.504 4.12331 134.212C4.55931 133.92 4.89899 133.506 5.09926 133.021C5.29954 132.536 5.3515 132.003 5.24843 131.489C5.14537 130.974 4.89189 130.502 4.52028 130.132C4.14867 129.762 3.67561 129.51 3.16091 129.409C2.6462 129.308 2.11309 129.362 1.62905 129.564C1.145 129.766 0.731771 130.107 0.441791 130.544C0.151812 130.981 -0.00196055 131.495 1.88721e-05 132.019C1.63788e-05 132.367 0.0686259 132.711 0.201923 133.032C0.33522 133.353 0.530667 133.644 0.776874 133.89C1.02308 134.135 1.31528 134.329 1.63674 134.461C1.95819 134.593 2.30251 134.661 2.65004 134.659V134.659Z" fill="#3B82F6"/>
<path d="M146.249 113.28C147.707 113.28 148.889 112.098 148.889 110.64C148.889 109.182 147.707 108 146.249 108C144.791 108 143.609 109.182 143.609 110.64C143.609 112.098 144.791 113.28 146.249 113.28Z" fill="#3B82F6"/>
<path d="M122.312 113.28C123.77 113.28 124.952 112.098 124.952 110.64C124.952 109.182 123.77 108 122.312 108C120.854 108 119.672 109.182 119.672 110.64C119.672 112.098 120.854 113.28 122.312 113.28Z" fill="#3B82F6"/>
<path d="M98.3822 113.29C98.9067 113.292 99.4201 113.139 99.8572 112.849C100.294 112.559 100.636 112.145 100.838 111.661C101.04 111.177 101.094 110.644 100.993 110.129C100.891 109.615 100.64 109.142 100.27 108.77C99.8994 108.398 99.4273 108.145 98.913 108.042C98.3986 107.939 97.8653 107.991 97.3805 108.191C96.8957 108.391 96.4812 108.731 96.1896 109.167C95.8979 109.603 95.7422 110.116 95.7422 110.64C95.7422 111.341 96.0201 112.014 96.5149 112.511C97.0097 113.007 97.6811 113.288 98.3822 113.29V113.29Z" fill="#3B82F6"/>
<path d="M74.4508 113.29C74.9749 113.29 75.4873 113.135 75.9231 112.844C76.3589 112.552 76.6985 112.139 76.899 111.654C77.0996 111.17 77.1521 110.637 77.0498 110.123C76.9476 109.609 76.6952 109.137 76.3246 108.766C75.954 108.396 75.4818 108.143 74.9678 108.041C74.4537 107.939 73.9209 107.991 73.4366 108.192C72.9524 108.393 72.5386 108.732 72.2474 109.168C71.9563 109.604 71.8008 110.116 71.8008 110.64C71.8008 110.988 71.8693 111.333 72.0024 111.654C72.1356 111.976 72.3308 112.268 72.5769 112.514C72.823 112.76 73.1151 112.955 73.4366 113.089C73.7582 113.222 74.1028 113.29 74.4508 113.29V113.29Z" fill="#3B82F6"/>
<path d="M50.5111 113.28C51.9691 113.28 53.1511 112.098 53.1511 110.64C53.1511 109.182 51.9691 108 50.5111 108C49.0531 108 47.8711 109.182 47.8711 110.64C47.8711 112.098 49.0531 113.28 50.5111 113.28Z" fill="#3B82F6"/>
<path d="M27.5901 112.977C28.9386 112.423 29.5823 110.88 29.0279 109.531C28.4735 108.183 26.9308 107.539 25.5823 108.094C24.2338 108.648 23.5901 110.191 24.1445 111.539C24.6989 112.888 26.2416 113.532 27.5901 112.977Z" fill="#3B82F6"/>
<path d="M2.65002 113.29C3.17414 113.29 3.68652 113.135 4.12231 112.844C4.5581 112.552 4.89769 112.139 5.09827 111.654C5.29884 111.17 5.3514 110.637 5.24915 110.123C5.14689 109.609 4.89453 109.137 4.52393 108.766C4.15332 108.396 3.68104 108.143 3.16699 108.041C2.65294 107.939 2.12021 107.991 1.63599 108.192C1.15176 108.393 0.737841 108.732 0.446655 109.168C0.15547 109.604 0 110.116 0 110.64C0 111.343 0.279274 112.017 0.776245 112.514C1.27322 113.011 1.9472 113.29 2.65002 113.29V113.29Z" fill="#3B82F6"/>
</g>
<g clip-path="url(#clip1_1331_7681)">
<path d="M146.249 90.9089C147.707 90.9089 148.889 89.7269 148.889 88.2689C148.889 86.8109 147.707 85.6289 146.249 85.6289C144.791 85.6289 143.609 86.8109 143.609 88.2689C143.609 89.7269 144.791 90.9089 146.249 90.9089Z" fill="#3B82F6"/>
<path d="M122.312 90.9089C123.77 90.9089 124.952 89.7269 124.952 88.2689C124.952 86.8109 123.77 85.6289 122.312 85.6289C120.854 85.6289 119.672 86.8109 119.672 88.2689C119.672 89.7269 120.854 90.9089 122.312 90.9089Z" fill="#3B82F6"/>
<path d="M98.3822 90.9094C98.9067 90.9114 99.4201 90.7577 99.8572 90.4677C100.294 90.1777 100.636 89.7645 100.838 89.2804C101.04 88.7964 101.094 88.2633 100.993 87.7486C100.891 87.2338 100.64 86.7607 100.27 86.3891C99.8994 86.0175 99.4273 85.7641 98.913 85.661C98.3986 85.558 97.8653 85.6099 97.3805 85.8101C96.8957 86.0104 96.4812 86.3501 96.1896 86.7861C95.8979 87.2221 95.7422 87.7348 95.7422 88.2594C95.7422 88.9605 96.0201 89.633 96.5149 90.1297C97.0097 90.6263 97.6811 90.9067 98.3822 90.9094V90.9094Z" fill="#3B82F6"/>
<path d="M74.4508 90.9094C74.9749 90.9094 75.4873 90.754 75.9231 90.4628C76.3589 90.1716 76.6985 89.7577 76.899 89.2735C77.0996 88.7893 77.1521 88.2564 77.0498 87.7424C76.9476 87.2283 76.6952 86.7562 76.3246 86.3856C75.954 86.015 75.4818 85.7625 74.9678 85.6603C74.4537 85.558 73.9209 85.6105 73.4366 85.8111C72.9524 86.0117 72.5386 86.3513 72.2474 86.7871C71.9563 87.2229 71.8008 87.7352 71.8008 88.2594C71.8008 88.6074 71.8693 88.952 72.0024 89.2735C72.1356 89.595 72.3308 89.8871 72.5769 90.1332C72.823 90.3793 73.1151 90.5745 73.4366 90.7077C73.7582 90.8409 74.1028 90.9094 74.4508 90.9094V90.9094Z" fill="#3B82F6"/>
<path d="M50.5111 90.9089C51.9691 90.9089 53.1511 89.7269 53.1511 88.2689C53.1511 86.8109 51.9691 85.6289 50.5111 85.6289C49.0531 85.6289 47.8711 86.8109 47.8711 88.2689C47.8711 89.7269 49.0531 90.9089 50.5111 90.9089Z" fill="#3B82F6"/>
<path d="M27.5901 90.5943C28.9386 90.0398 29.5823 88.4972 29.0279 87.1487C28.4735 85.8002 26.9308 85.1565 25.5823 85.7109C24.2338 86.2654 23.5901 87.808 24.1445 89.1565C24.6989 90.505 26.2416 91.1487 27.5901 90.5943Z" fill="#3B82F6"/>
<path d="M2.65212 85.6602C2.12715 85.6582 1.61349 85.8122 1.17617 86.1026C0.738848 86.393 0.397631 86.8068 0.195821 87.2915C-0.0059898 87.7761 -0.0593093 88.3097 0.0426225 88.8247C0.144554 89.3397 0.39712 89.8128 0.768331 90.184C1.13954 90.5552 1.6126 90.8078 2.12758 90.9097C2.64256 91.0116 3.17628 90.9583 3.66091 90.7565C4.14554 90.5547 4.55933 90.2135 4.84975 89.7762C5.14018 89.3389 5.29411 88.8252 5.29213 88.3002C5.2895 87.6008 5.01054 86.9308 4.51601 86.4363C4.02149 85.9418 3.35148 85.6628 2.65212 85.6602V85.6602Z" fill="#3B82F6"/>
<path d="M146.249 69.4987C147.707 69.4987 148.889 68.3168 148.889 66.8587C148.889 65.4007 147.707 64.2188 146.249 64.2188C144.791 64.2188 143.609 65.4007 143.609 66.8587C143.609 68.3168 144.791 69.4987 146.249 69.4987Z" fill="#3B82F6"/>
<path d="M122.312 69.4987C123.77 69.4987 124.952 68.3168 124.952 66.8587C124.952 65.4007 123.77 64.2188 122.312 64.2188C120.854 64.2188 119.672 65.4007 119.672 66.8587C119.672 68.3168 120.854 69.4987 122.312 69.4987Z" fill="#3B82F6"/>
<path d="M98.3822 69.4992C98.9072 69.5012 99.421 69.3472 99.8583 69.0568C100.296 68.7664 100.637 68.3526 100.839 67.8679C101.04 67.3833 101.094 66.8497 100.992 66.3347C100.89 65.8197 100.637 65.3466 100.266 64.9754C99.8949 64.6042 99.4217 64.3516 98.9068 64.2497C98.3918 64.1477 97.8582 64.201 97.3736 64.4029C96.8889 64.6047 96.4751 64.9459 96.1847 65.3832C95.8943 65.8205 95.7402 66.3342 95.7422 66.8592C95.7448 67.5586 96.0239 68.2285 96.5185 68.723C97.013 69.2176 97.6829 69.4966 98.3822 69.4992V69.4992Z" fill="#3B82F6"/>
<path d="M74.4508 69.4992C74.9754 69.4992 75.4881 69.3435 75.9241 69.0519C76.3601 68.7603 76.6998 68.3458 76.9 67.861C77.1003 67.3762 77.1522 66.8428 77.0491 66.3285C76.946 65.8142 76.6927 65.342 76.3211 64.9718C75.9495 64.6016 75.4763 64.35 74.9616 64.2489C74.4469 64.1478 73.9138 64.2017 73.4297 64.4038C72.9457 64.6059 72.5326 64.9471 72.2426 65.3842C71.9526 65.8213 71.7988 66.3347 71.8008 66.8592C71.8008 67.2067 71.8694 67.5508 72.0027 67.8718C72.136 68.1927 72.3313 68.4842 72.5775 68.7295C72.8237 68.9748 73.1159 69.169 73.4374 69.3011C73.7589 69.4332 74.1033 69.5005 74.4508 69.4992V69.4992Z" fill="#3B82F6"/>
<path d="M50.5111 69.4987C51.9691 69.4987 53.1511 68.3168 53.1511 66.8587C53.1511 65.4007 51.9691 64.2188 50.5111 64.2188C49.0531 64.2188 47.8711 65.4007 47.8711 66.8587C47.8711 68.3168 49.0531 69.4987 50.5111 69.4987Z" fill="#3B82F6"/>
<path d="M27.5901 69.192C28.9386 68.6375 29.5823 67.0949 29.0279 65.7464C28.4735 64.3979 26.9308 63.7542 25.5823 64.3086C24.2338 64.863 23.5901 66.4057 24.1445 67.7542C24.699 69.1027 26.2416 69.7464 27.5901 69.192Z" fill="#3B82F6"/>
<path d="M2.65004 69.4992C3.17459 69.4992 3.68731 69.3435 4.12331 69.0519C4.55931 68.7603 4.89899 68.3458 5.09926 67.861C5.29954 67.3762 5.3515 66.8428 5.24843 66.3285C5.14537 65.8142 4.89189 65.342 4.52028 64.9718C4.14867 64.6016 3.67561 64.35 3.16091 64.2489C2.6462 64.1478 2.11309 64.2017 1.62905 64.4038C1.145 64.6059 0.731771 64.9471 0.441791 65.3842C0.151812 65.8213 -0.00196055 66.3347 1.88721e-05 66.8592C1.63788e-05 67.2067 0.0686259 67.5508 0.201923 67.8718C0.33522 68.1927 0.530667 68.4842 0.776874 68.7295C1.02308 68.9748 1.31528 69.169 1.63674 69.3011C1.95819 69.4332 2.30251 69.5005 2.65004 69.4992Z" fill="#3B82F6"/>
<path d="M146.249 48.0886C147.707 48.0886 148.889 46.9066 148.889 45.4486C148.889 43.9906 147.707 42.8086 146.249 42.8086C144.791 42.8086 143.609 43.9906 143.609 45.4486C143.609 46.9066 144.791 48.0886 146.249 48.0886Z" fill="#3B82F6"/>
<path d="M122.312 48.0886C123.77 48.0886 124.952 46.9066 124.952 45.4486C124.952 43.9906 123.77 42.8086 122.312 42.8086C120.854 42.8086 119.672 43.9906 119.672 45.4486C119.672 46.9066 120.854 48.0886 122.312 48.0886Z" fill="#3B82F6"/>
<path d="M98.3822 48.1008C98.9067 48.1028 99.4201 47.9491 99.8572 47.6591C100.294 47.3691 100.636 46.9559 100.838 46.4718C101.04 45.9878 101.094 45.4547 100.993 44.94C100.891 44.4253 100.64 43.9521 100.27 43.5805C99.8994 43.2089 99.4273 42.9555 98.913 42.8524C98.3986 42.7494 97.8653 42.8013 97.3805 43.0015C96.8957 43.2018 96.4812 43.5415 96.1896 43.9775C95.8979 44.4135 95.7422 44.9262 95.7422 45.4508C95.7422 46.1519 96.0201 46.8244 96.5149 47.3211C97.0097 47.8177 97.6811 48.0981 98.3822 48.1008V48.1008Z" fill="#3B82F6"/>
<path d="M74.4508 48.1008C74.9749 48.1008 75.4873 47.9454 75.9231 47.6542C76.3589 47.363 76.6985 46.9491 76.899 46.4649C77.0996 45.9807 77.1521 45.4478 77.0498 44.9338C76.9476 44.4197 76.6952 43.9475 76.3246 43.5769C75.954 43.2063 75.4818 42.9539 74.9678 42.8517C74.4537 42.7494 73.9209 42.8019 73.4366 43.0025C72.9524 43.2031 72.5386 43.5427 72.2474 43.9785C71.9563 44.4143 71.8008 44.9266 71.8008 45.4508C71.8008 45.7988 71.8693 46.1434 72.0024 46.4649C72.1356 46.7864 72.3308 47.0785 72.5769 47.3246C72.823 47.5707 73.1151 47.7659 73.4366 47.8991C73.7582 48.0322 74.1028 48.1008 74.4508 48.1008V48.1008Z" fill="#3B82F6"/>
<path d="M50.5111 48.0886C51.9691 48.0886 53.1511 46.9066 53.1511 45.4486C53.1511 43.9906 51.9691 42.8086 50.5111 42.8086C49.0531 42.8086 47.8711 43.9906 47.8711 45.4486C47.8711 46.9066 49.0531 48.0886 50.5111 48.0886Z" fill="#3B82F6"/>
<path d="M27.5901 47.7915C28.9386 47.2371 29.5823 45.6944 29.0279 44.3459C28.4735 42.9974 26.9308 42.3538 25.5823 42.9082C24.2338 43.4626 23.5901 45.0052 24.1445 46.3537C24.6989 47.7022 26.2416 48.346 27.5901 47.7915Z" fill="#3B82F6"/>
<path d="M2.65002 48.1008C3.17414 48.1008 3.68652 47.9454 4.12231 47.6542C4.5581 47.363 4.89769 46.9491 5.09827 46.4649C5.29884 45.9807 5.3514 45.4478 5.24915 44.9338C5.14689 44.4197 4.89453 43.9475 4.52393 43.5769C4.15332 43.2063 3.68104 42.9539 3.16699 42.8517C2.65294 42.7494 2.12021 42.8019 1.63599 43.0025C1.15176 43.2031 0.737841 43.5427 0.446655 43.9785C0.15547 44.4143 0 44.9266 0 45.4508C0 46.1536 0.279274 46.8276 0.776245 47.3246C1.27322 47.8216 1.9472 48.1008 2.65002 48.1008V48.1008Z" fill="#3B82F6"/>
<path d="M146.249 26.6902C147.707 26.6902 148.889 25.5082 148.889 24.0502C148.889 22.5921 147.707 21.4102 146.249 21.4102C144.791 21.4102 143.609 22.5921 143.609 24.0502C143.609 25.5082 144.791 26.6902 146.249 26.6902Z" fill="#3B82F6"/>
<path d="M122.312 26.6902C123.77 26.6902 124.952 25.5082 124.952 24.0502C124.952 22.5921 123.77 21.4102 122.312 21.4102C120.854 21.4102 119.672 22.5921 119.672 24.0502C119.672 25.5082 120.854 26.6902 122.312 26.6902Z" fill="#3B82F6"/>
<path d="M98.3822 26.6594C98.9072 26.6614 99.421 26.5074 99.8583 26.2169C100.296 25.9265 100.637 25.5127 100.839 25.0281C101.04 24.5435 101.094 24.0098 100.992 23.4948C100.89 22.9799 100.637 22.5068 100.266 22.1356C99.8949 21.7644 99.4217 21.5117 98.9068 21.4098C98.3918 21.3079 97.8582 21.3612 97.3736 21.563C96.8889 21.7648 96.4751 22.106 96.1847 22.5434C95.8943 22.9807 95.7402 23.4944 95.7422 24.0194C95.7448 24.7187 96.0239 25.3887 96.5185 25.8833C97.013 26.3778 97.6829 26.6567 98.3822 26.6594V26.6594Z" fill="#3B82F6"/>
<path d="M74.4508 26.6594C74.9754 26.6594 75.4881 26.5037 75.9241 26.2121C76.3601 25.9204 76.6998 25.506 76.9 25.0212C77.1003 24.5364 77.1522 24.0031 77.0491 23.4887C76.946 22.9744 76.6927 22.5022 76.3211 22.132C75.9495 21.7618 75.4763 21.5102 74.9616 21.4091C74.4469 21.308 73.9138 21.3619 73.4297 21.564C72.9457 21.7661 72.5326 22.1073 72.2426 22.5444C71.9526 22.9815 71.7988 23.4948 71.8008 24.0194C71.8008 24.3669 71.8694 24.7111 72.0027 25.032C72.136 25.353 72.3313 25.6444 72.5775 25.8897C72.8237 26.1349 73.1159 26.3292 73.4374 26.4613C73.7589 26.5934 74.1033 26.6607 74.4508 26.6594V26.6594Z" fill="#3B82F6"/>
<path d="M50.5111 26.6902C51.9691 26.6902 53.1511 25.5082 53.1511 24.0502C53.1511 22.5921 51.9691 21.4102 50.5111 21.4102C49.0531 21.4102 47.8711 22.5921 47.8711 24.0502C47.8711 25.5082 49.0531 26.6902 50.5111 26.6902Z" fill="#3B82F6"/>
<path d="M27.594 26.3892C28.9425 25.8348 29.5863 24.2922 29.0318 22.9437C28.4774 21.5952 26.9347 20.9514 25.5862 21.5059C24.2377 22.0603 23.594 23.603 24.1484 24.9515C24.7029 26.3 26.2455 26.9437 27.594 26.3892Z" fill="#3B82F6"/>
<path d="M2.65004 26.6594C3.17459 26.6594 3.68731 26.5037 4.12331 26.2121C4.55931 25.9204 4.89899 25.506 5.09926 25.0212C5.29954 24.5364 5.3515 24.0031 5.24843 23.4887C5.14537 22.9744 4.89189 22.5022 4.52028 22.132C4.14867 21.7618 3.67561 21.5102 3.16091 21.4091C2.6462 21.308 2.11309 21.3619 1.62905 21.564C1.145 21.7661 0.731771 22.1073 0.441791 22.5444C0.151812 22.9815 -0.00196055 23.4948 1.88721e-05 24.0194C1.63788e-05 24.3669 0.0686259 24.7111 0.201923 25.032C0.33522 25.353 0.530667 25.6444 0.776874 25.8897C1.02308 26.1349 1.31528 26.3292 1.63674 26.4613C1.95819 26.5934 2.30251 26.6607 2.65004 26.6594V26.6594Z" fill="#3B82F6"/>
<path d="M146.249 5.28C147.707 5.28 148.889 4.09803 148.889 2.64C148.889 1.18197 147.707 0 146.249 0C144.791 0 143.609 1.18197 143.609 2.64C143.609 4.09803 144.791 5.28 146.249 5.28Z" fill="#3B82F6"/>
<path d="M122.312 5.28C123.77 5.28 124.952 4.09803 124.952 2.64C124.952 1.18197 123.77 0 122.312 0C120.854 0 119.672 1.18197 119.672 2.64C119.672 4.09803 120.854 5.28 122.312 5.28Z" fill="#3B82F6"/>
<path d="M98.3822 5.29024C98.9067 5.29222 99.4201 5.13851 99.8572 4.84853C100.294 4.55855 100.636 4.14532 100.838 3.66127C101.04 3.17723 101.094 2.64412 100.993 2.12941C100.891 1.61471 100.64 1.14159 100.27 0.769978C99.8994 0.398368 99.4273 0.144953 98.913 0.0418894C98.3986 -0.0611745 97.8653 -0.00927669 97.3805 0.190998C96.8957 0.391273 96.4812 0.730946 96.1896 1.16695C95.8979 1.60295 95.7422 2.11567 95.7422 2.64022C95.7422 3.34131 96.0201 4.01383 96.5149 4.51052C97.0097 5.0072 97.6811 5.2876 98.3822 5.29024V5.29024Z" fill="#3B82F6"/>
<path d="M74.4508 5.29023C74.9749 5.29023 75.4873 5.13483 75.9231 4.84364C76.3589 4.55245 76.6985 4.13859 76.899 3.65437C77.0996 3.17015 77.1521 2.63729 77.0498 2.12324C76.9476 1.60919 76.6952 1.13698 76.3246 0.76637C75.954 0.395761 75.4818 0.143401 74.9678 0.04115C74.4537 -0.0611008 73.9209 -0.00860433 73.4366 0.191968C72.9524 0.39254 72.5386 0.732191 72.2474 1.16798C71.9563 1.60377 71.8008 2.11609 71.8008 2.64021C71.8008 2.98821 71.8693 3.33286 72.0024 3.65437C72.1356 3.97588 72.3308 4.26798 72.5769 4.51405C72.823 4.76013 73.1151 4.95534 73.4366 5.08851C73.7582 5.22169 74.1028 5.29023 74.4508 5.29023V5.29023Z" fill="#3B82F6"/>
<path d="M50.5111 5.28C51.9691 5.28 53.1511 4.09803 53.1511 2.64C53.1511 1.18197 51.9691 0 50.5111 0C49.0531 0 47.8711 1.18197 47.8711 2.64C47.8711 4.09803 49.0531 5.28 50.5111 5.28Z" fill="#3B82F6"/>
<path d="M27.5901 4.97708C28.9386 4.42265 29.5823 2.87999 29.0279 1.53149C28.4735 0.182988 26.9308 -0.460681 25.5823 0.0937553C24.2338 0.648191 23.5901 2.19079 24.1445 3.53929C24.6989 4.88779 26.2416 5.53152 27.5901 4.97708Z" fill="#3B82F6"/>
<path d="M2.65002 5.29023C3.17414 5.29023 3.68652 5.13483 4.12231 4.84364C4.5581 4.55245 4.89769 4.13859 5.09827 3.65437C5.29884 3.17015 5.3514 2.63729 5.24915 2.12324C5.14689 1.60919 4.89453 1.13698 4.52393 0.76637C4.15332 0.395761 3.68104 0.143401 3.16699 0.04115C2.65294 -0.0611008 2.12021 -0.00860433 1.63599 0.191968C1.15176 0.39254 0.737841 0.732191 0.446655 1.16798C0.15547 1.60377 0 2.11609 0 2.64021C0 3.34303 0.279274 4.01708 0.776245 4.51405C1.27322 5.01102 1.9472 5.29023 2.65002 5.29023V5.29023Z" fill="#3B82F6"/>
</g>
<defs>
<clipPath id="clip0_1331_7681">
<rect width="148.89" height="90.91" fill="white" transform="translate(0 108)"/>
</clipPath>
<clipPath id="clip1_1331_7681">
<rect width="148.89" height="90.91" fill="white"/>
</clipPath>
</defs>
</svg>
