<svg width="20" height="20" viewBox="0 0 20 20" fill="none" xmlns="http://www.w3.org/2000/svg">
<path d="M18.3327 6.0327C18.3333 5.92302 18.3123 5.81431 18.2708 5.71277C18.2294 5.61124 18.1683 5.5189 18.091 5.44103L14.5577 1.9077C14.4798 1.83046 14.3875 1.76936 14.286 1.72789C14.1844 1.68642 14.0757 1.6654 13.966 1.66603C13.8564 1.6654 13.7476 1.68642 13.6461 1.72789C13.5446 1.76936 13.4522 1.83046 13.3744 1.9077L11.016 4.26603L1.9077 13.3744C1.83046 13.4522 1.76936 13.5446 1.72789 13.6461C1.68642 13.7476 1.6654 13.8564 1.66603 13.966V17.4994C1.66603 17.7204 1.75383 17.9323 1.91011 18.0886C2.06639 18.2449 2.27835 18.3327 2.49936 18.3327H6.0327C6.1493 18.339 6.26594 18.3208 6.37505 18.2792C6.48415 18.2375 6.58329 18.1734 6.66603 18.091L15.7244 8.9827L18.091 6.66603C18.1671 6.58526 18.2291 6.49231 18.2744 6.39103C18.2824 6.3246 18.2824 6.25745 18.2744 6.19103C18.2783 6.15224 18.2783 6.11315 18.2744 6.07436L18.3327 6.0327ZM5.69103 16.666H3.3327V14.3077L11.6077 6.0327L13.966 8.39103L5.69103 16.666ZM15.141 7.21603L12.7827 4.8577L13.966 3.6827L16.316 6.0327L15.141 7.21603Z" fill="#0180FE"/>
</svg>
