<svg width="40" height="30" viewBox="0 0 40 30" fill="none" xmlns="http://www.w3.org/2000/svg">
<path d="M37.5006 25.0004C37.5006 25.6635 37.2372 26.2994 36.7684 26.7682C36.2995 27.2371 35.6636 27.5004 35.0006 27.5004H5.00008C4.33703 27.5004 3.70113 27.2371 3.23229 26.7682C2.76344 26.2994 2.50004 25.6635 2.50004 25.0004V10.0002C2.50004 9.33711 2.76344 8.70122 3.23229 8.23237C3.70113 7.76352 4.33703 7.50012 5.00008 7.50012H7.93013C9.91826 7.49903 11.8246 6.70862 13.2302 5.30259L15.3053 3.23255C15.7728 2.76489 16.4065 2.50151 17.0678 2.50004H22.9279C23.5909 2.50018 24.2267 2.76367 24.6954 3.23255L26.7654 5.30259C27.462 5.99938 28.2891 6.5521 29.1993 6.92916C30.1096 7.30623 31.0853 7.50024 32.0705 7.50012H35.0006C35.6636 7.50012 36.2995 7.76352 36.7684 8.23237C37.2372 8.70122 37.5006 9.33711 37.5006 10.0002V25.0004ZM5.00008 5.00008C3.67398 5.00008 2.40219 5.52687 1.46449 6.46457C0.526793 7.40227 0 8.67406 0 10.0002L0 25.0004C0 26.3265 0.526793 27.5983 1.46449 28.536C2.40219 29.4737 3.67398 30.0005 5.00008 30.0005H35.0006C36.3267 30.0005 37.5985 29.4737 38.5362 28.536C39.4739 27.5983 40.0007 26.3265 40.0007 25.0004V10.0002C40.0007 8.67406 39.4739 7.40227 38.5362 6.46457C37.5985 5.52687 36.3267 5.00008 35.0006 5.00008H32.0705C30.7445 4.9998 29.4729 4.47282 28.5355 3.53506L26.4654 1.46502C25.528 0.527262 24.2564 0.000283192 22.9304 0H17.0703C15.7443 0.000283192 14.4727 0.527262 13.5352 1.46502L11.4652 3.53506C10.5277 4.47282 9.25612 4.9998 7.93013 5.00008H5.00008Z" fill="#0180FE"/>
<path d="M20.0002 22.5002C18.3426 22.5002 16.7529 21.8418 15.5808 20.6696C14.4086 19.4975 13.7501 17.9078 13.7501 16.2501C13.7501 14.5925 14.4086 13.0028 15.5808 11.8307C16.7529 10.6585 18.3426 10 20.0002 10C21.6579 10 23.2476 10.6585 24.4197 11.8307C25.5919 13.0028 26.2503 14.5925 26.2503 16.2501C26.2503 17.9078 25.5919 19.4975 24.4197 20.6696C23.2476 21.8418 21.6579 22.5002 20.0002 22.5002ZM20.0002 25.0003C22.3209 25.0003 24.5466 24.0784 26.1875 22.4374C27.8285 20.7965 28.7504 18.5708 28.7504 16.2501C28.7504 13.9295 27.8285 11.7038 26.1875 10.0629C24.5466 8.42189 22.3209 7.5 20.0002 7.5C17.6796 7.5 15.4539 8.42189 13.813 10.0629C12.172 11.7038 11.2501 13.9295 11.2501 16.2501C11.2501 18.5708 12.172 20.7965 13.813 22.4374C15.4539 24.0784 17.6796 25.0003 20.0002 25.0003ZM7.50004 11.2501C7.50004 11.5816 7.36834 11.8995 7.13392 12.134C6.89949 12.3684 6.58155 12.5001 6.25002 12.5001C5.91849 12.5001 5.60055 12.3684 5.36612 12.134C5.1317 11.8995 5 11.5816 5 11.2501C5 10.9185 5.1317 10.6006 5.36612 10.3662C5.60055 10.1317 5.91849 10 6.25002 10C6.58155 10 6.89949 10.1317 7.13392 10.3662C7.36834 10.6006 7.50004 10.9185 7.50004 11.2501Z" fill="#0180FE"/>
</svg>
