<svg width="81" height="81" viewBox="0 0 81 81" fill="none" xmlns="http://www.w3.org/2000/svg">
<circle opacity="0.1" cx="40.5" cy="40.5" r="40.5" fill="#00BAA3"/>
<path d="M36.832 49.5007H30.4987V46.334H36.832V49.5007ZM36.832 43.1673H30.4987V40.0007H36.832V43.1673ZM36.832 22.584V24.1673H30.4987C28.7412 24.1673 27.332 25.5765 27.332 27.334V52.6673C27.332 53.5072 27.6657 54.3126 28.2595 54.9065C28.8534 55.5004 29.6588 55.834 30.4987 55.834H36.832V57.4173H39.9987V22.584H36.832ZM52.6654 33.6673V52.6673C52.6654 54.4248 51.2562 55.834 49.4987 55.834H43.1654V52.6673H49.4987V38.4173H43.1654V35.2507H50.2904L43.1654 28.1257V24.1673L52.6654 33.6673ZM46.332 43.1673H43.1654V40.0007H46.332V43.1673ZM46.332 49.5007H43.1654V46.334H46.332V49.5007Z" fill="#00BAA3"/>
</svg>
