<svg width="81" height="81" viewBox="0 0 81 81" fill="none" xmlns="http://www.w3.org/2000/svg">
<circle opacity="0.1" cx="40.5" cy="40.5" r="40.5" fill="#F87F2D"/>
<path d="M52.0041 32.7368L47.2828 34.6262L35.6578 29.9762L38.4866 28.8432C39.7801 28.3257 41.2231 28.3257 42.5166 28.8432L51.4399 32.4128C51.6421 32.4933 51.8321 32.6019 52.0041 32.7352V32.7368ZM40.5031 37.3387L45.1965 35.4601L33.5715 30.8101L29.5632 32.4144C29.361 32.4949 29.171 32.6034 28.999 32.7368L40.5016 37.3387H40.5031ZM28.1016 34.572C28.1016 34.4015 28.1202 34.2325 28.1558 34.0698L39.7266 38.6981V43.9169C39.2144 45.0322 38.95 46.2453 38.9516 47.4726C38.9516 48.7436 39.2306 49.948 39.7266 51.0299V52.4838C39.3015 52.4229 38.8852 52.3116 38.4866 52.1521L29.5632 48.5824C29.1317 48.4098 28.7618 48.1119 28.5012 47.727C28.2407 47.3422 28.1015 46.888 28.1016 46.4233V34.572ZM52.9016 34.572V40.896C51.3756 39.6342 49.4566 38.9456 47.4766 38.9492C46.3154 38.9476 45.1663 39.1839 44.0999 39.6435C43.0336 40.103 42.0727 40.7762 41.2766 41.6214V38.6981L52.8473 34.0698C52.883 34.2325 52.9016 34.4015 52.9016 34.572ZM47.4766 54.4492C49.3264 54.4492 51.1006 53.7143 52.4086 52.4062C53.7167 51.0982 54.4516 49.3241 54.4516 47.4742C54.4516 45.6243 53.7167 43.8502 52.4086 42.5421C51.1006 41.234 49.3264 40.4992 47.4766 40.4992C45.6267 40.4992 43.8526 41.234 42.5445 42.5421C41.2364 43.8502 40.5016 45.6243 40.5016 47.4742C40.5016 49.3241 41.2364 51.0982 42.5445 52.4062C43.8526 53.7143 45.6267 54.4492 47.4766 54.4492ZM48.0206 43.8239L48.0253 43.827L51.1253 46.927C51.1972 46.9991 51.2543 47.0846 51.2932 47.1787C51.3321 47.2728 51.3521 47.3737 51.352 47.4755C51.3519 47.5773 51.3318 47.6781 51.2928 47.7722C51.2537 47.8663 51.1965 47.9517 51.1245 48.0236C51.0524 48.0956 50.9669 48.1527 50.8728 48.1916C50.7787 48.2305 50.6778 48.2505 50.576 48.2504C50.4742 48.2503 50.3734 48.2302 50.2793 48.1911C50.1853 48.1521 50.0998 48.0949 50.0279 48.0229L48.2516 46.245V50.5742C48.2516 50.7797 48.1699 50.9768 48.0246 51.1222C47.8792 51.2675 47.6821 51.3492 47.4766 51.3492C47.271 51.3492 47.0739 51.2675 46.9286 51.1222C46.7832 50.9768 46.7016 50.7797 46.7016 50.5742V46.245L44.9253 48.0213C44.8533 48.0934 44.7679 48.1506 44.6738 48.1896C44.5798 48.2286 44.4789 48.2488 44.3771 48.2488C44.2753 48.2489 44.1744 48.2289 44.0803 48.19C43.9862 48.1511 43.9007 48.0941 43.8286 48.0221C43.7566 47.9501 43.6994 47.8647 43.6604 47.7706C43.6213 47.6766 43.6012 47.5758 43.6011 47.4739C43.6011 47.3721 43.621 47.2713 43.6599 47.1772C43.6989 47.0831 43.7559 46.9975 43.8279 46.9255L46.9279 43.8255C47.0723 43.6814 47.2678 43.6 47.4719 43.5992H47.4812C47.6833 43.6001 47.877 43.6802 48.0206 43.8224V43.8239Z" fill="#F87F2D"/>
</svg>
