<svg width="81" height="81" viewBox="0 0 81 81" fill="none" xmlns="http://www.w3.org/2000/svg">
<circle opacity="0.1" cx="40.5" cy="40.5" r="40.5" fill="#FFBD27"/>
<path d="M40 24.0625C31.1982 24.0625 24.0625 31.1982 24.0625 40L24.063 40.0282L24.0625 40.0563C24.0625 48.8272 31.1584 55.9375 39.9123 55.9375L39.9463 55.9364L40 55.9375C48.8018 55.9375 55.9375 48.8018 55.9375 40C55.9375 31.1982 48.8018 24.0625 40 24.0625ZM54.875 40C54.875 41.2718 54.7146 42.5059 54.4149 43.6837C54.2763 43.5881 53.9097 43.9833 53.8194 43.4595C53.7063 42.8092 52.9731 42.3577 52.5784 42.6685C52.1837 42.9792 51.0558 43.8829 51.0001 44.4482C50.9432 45.0129 50.4635 45.6908 50.2388 45.2116C50.0125 44.7313 49.3367 43.2337 49.3643 42.8385C49.392 42.4432 49.053 42.9798 48.5473 42.1887C48.0394 41.3977 47.1655 42.0751 46.4605 41.6798C45.7556 41.284 44.9661 40.7475 44.5709 40.5785C44.1772 40.4085 45.2758 42.1601 45.4172 41.9343C45.559 41.7085 46.1221 42.1038 46.2916 42.1038C46.4611 42.1038 46.9116 42.499 46.63 42.8666C46.3484 43.2342 43.8393 44.7611 43.5854 44.3637C43.3304 43.9663 41.8376 40.8888 41.5831 41.0774C41.3292 41.266 43.1625 44.4763 43.4728 44.6739C43.782 44.8721 44.7133 44.7026 45.1637 44.505C45.6153 44.3074 44.2335 46.7086 43.6423 46.9912C43.0504 47.2733 42.5713 48.1494 42.8241 48.5446C43.0781 48.9399 43.1062 50.4375 42.5713 50.6356C42.0347 50.8327 41.8376 51.1435 42.0065 51.5111C42.1749 51.8777 41.6123 52.4987 41.3584 52.8945C41.1039 53.2897 40.1179 54.1089 40.0329 54.3353C39.949 54.5616 38.7367 54.5047 38.2564 54.5047C37.7778 54.5047 38.1438 53.9113 38.087 53.4034C38.0317 52.8945 37.6088 52.4142 37.6088 52.1603C37.6088 51.9058 37.467 51.3124 37.2704 51.0303C37.0733 50.7472 37.016 50.2106 37.2136 49.9004C37.4117 49.5891 37.552 48.6859 37.1583 48.2902C36.7631 47.8949 36.3115 47.2165 36.6223 46.6799C36.9326 46.1434 36.2839 46.2002 35.7484 45.9452C35.2124 45.6908 34.1127 46.0302 33.549 46.1152C32.9848 46.1997 32.4217 45.9739 32.2523 45.6908C32.0833 45.4087 31.7168 44.7026 31.3412 44.5326C30.9666 44.3637 31.1813 43.629 31.4065 43.3469C31.6328 43.0648 31.1813 42.5277 31.4065 42.3008C31.6328 42.0751 31.7731 41.2564 32.2241 41.0774C32.6757 40.8989 32.5907 40.7762 32.6045 40.3522C32.6188 39.9283 33.1118 39.9283 33.1957 39.7025C33.2807 39.4762 33.5342 39.3636 34.0431 39.3636C34.5504 39.3636 35.4095 39.0666 35.8185 38.9678C36.2276 38.869 36.9326 38.7277 36.8757 39.1234C36.8194 39.5187 36.8337 39.9703 37.101 39.9703C37.3692 39.9703 37.7358 40.1259 38.1587 40.3894C38.5816 40.6524 38.5954 40.4372 38.6522 40.1402C38.7091 39.8433 39.3003 39.9564 39.9123 40.2391C40.5243 40.5217 41.3589 40.3235 41.6256 40.2959C41.8939 40.2667 42.0071 39.4624 41.9364 39.1941C41.8652 38.9258 41.4429 39.3211 41.1751 39.1516C40.9074 38.9827 40.5403 39.1941 40.2731 38.9534C40.0048 38.7138 39.9623 38.1486 40.2731 38.1348C40.5828 38.1204 40.7384 38.0216 40.9212 37.8102C41.105 37.5982 41.7956 37.4713 42.0634 37.6827C42.3306 37.8947 42.7264 38.036 42.9649 37.7958C43.2045 37.5562 42.4868 37.0903 42.3306 36.9628C42.1755 36.8359 42.3024 36.4263 42.1478 36.4263C41.9922 36.4263 41.8652 36.4964 41.9502 36.6946C42.0347 36.8922 41.4992 37.2449 41.4137 37.0478C41.3297 36.8497 41.1889 36.4688 40.9775 36.4688C40.7666 36.4688 40.4845 37.4293 40.4702 37.5844C40.4558 37.7401 40.0893 37.994 39.7939 37.994C39.4985 37.994 39.4985 38.3335 39.6531 38.4891C39.8082 38.6442 39.6951 39.2658 39.4135 39.3014C39.1314 39.3375 39.0326 39.2377 38.9906 38.997C38.9487 38.7574 38.6666 38.7856 38.6522 38.291C38.6379 37.7964 38.3276 37.5568 38.1305 37.3305C37.9334 37.1042 37.4256 36.4406 37.2285 36.7376C37.0314 37.0346 37.9334 37.6699 38.1725 37.8389C38.4132 38.0083 38.3707 38.3754 38.2437 38.4604C38.1167 38.5454 37.8771 39.2377 37.7363 39.2934C37.5945 39.3497 37.4601 39.0831 37.4601 39.0831C37.2487 38.9986 37.7555 38.7441 37.8405 38.6172C37.9244 38.4902 36.9528 37.6003 36.7774 37.3459C36.6021 37.0914 35.8531 37.5573 35.5152 37.3884C35.1768 37.2194 34.6689 38.0237 34.6275 38.4897C34.5844 38.9561 34.0346 39.0825 33.5273 39.0825C33.0204 39.0825 32.6815 38.7016 32.8515 38.3202C33.0204 37.9387 32.7665 37.3034 33.0629 37.2609C33.3588 37.2189 34.2035 37.2609 34.373 36.795C34.5419 36.3291 33.5692 35.9051 33.9507 35.8207C34.3305 35.7357 34.9234 35.1433 35.3462 34.8038C35.7681 34.4649 35.8106 34.0415 36.1909 34.0118C36.5724 33.9825 36.107 33.2781 36.4454 33.0667C36.7843 32.8547 36.8683 33.8295 37.1222 33.8295C37.3762 33.8295 37.8824 33.7445 38.3058 33.9565C38.7293 34.1685 38.8557 33.7445 39.0252 33.1931C39.1941 32.6427 39.617 32.3457 40.4622 31.9223C41.3079 31.4984 39.4905 32.0493 39.1516 31.6254C38.8132 31.2014 39.2786 30.2691 39.4905 29.6109C39.702 28.9521 38.8137 30.2691 38.3483 30.9475C37.8824 31.6254 38.4753 31.9218 38.4323 32.3877C38.3903 32.8542 37.6301 33.4045 37.6301 33.4045C37.2917 33.447 37.3337 32.7692 37.1647 32.4727C36.9952 32.1763 36.6988 32.3032 36.2334 32.6422C35.7681 32.9811 35.7261 31.8373 35.5997 31.3709C35.4737 30.9055 36.3609 30.3116 36.778 29.995C37.1945 29.6773 37.8824 28.151 38.6442 26.9653C39.4061 25.779 40.5052 26.3718 40.8011 26.8383C41.0981 27.3037 41.8578 27.0072 42.5776 27.8551C43.2969 28.7024 42.4082 29.0833 41.606 28.7391C40.8011 28.3948 41.7744 29.5923 42.2387 29.9312C42.7041 30.2696 42.958 29.1683 43.1275 28.9144C43.2964 28.6599 43.9302 28.7874 44.395 28.109C44.8609 27.4312 45.9176 27.5587 46.5211 27.633C47.1251 27.7079 46.9748 27.2617 46.5944 26.8967C46.3128 26.6268 46.8887 26.8633 47.5666 27.1942C51.9404 29.783 54.875 34.5478 54.875 40ZM33.6473 34.9382C33.5071 34.7932 33.7892 34.2221 33.9156 34.0527C34.0431 33.8832 33.5628 33.9395 33.5921 34.1802C33.6202 34.4198 33.4082 34.7874 33.1123 34.8862C32.8164 34.985 32.4791 34.9563 32.6475 34.688C32.8159 34.4197 32.6613 34.1796 32.5343 33.9252C32.4079 33.6707 33.2388 33.5156 33.4088 33.3604C33.5777 33.2053 33.1416 33.106 33.1548 32.8664C33.1692 32.6257 33.268 32.4143 33.4359 32.3861C33.6053 32.358 33.7637 32.2496 33.9156 32.2592C34.3815 32.2878 34.2391 33.3466 34.4091 33.6861C34.5781 34.0245 35.0578 34.4346 35.0153 34.7305C34.9728 35.0275 34.8825 35.197 34.5372 35.112C34.1902 35.027 33.6351 35.5497 33.4226 35.4509C33.2106 35.3516 33.7892 35.0833 33.6473 34.9382ZM30.6096 28.9983C31.033 29.2098 31.3704 28.8262 31.6658 28.7439C32.0158 28.6472 32.2156 29.8882 31.8777 29.8457C31.5393 29.8032 31.1589 30.5236 30.6702 30.4811C30.1809 30.4386 30.3977 30.1002 29.8478 29.5918C29.7299 29.4823 29.6815 29.3835 29.6773 29.2969C29.7947 29.1837 29.9116 29.0701 30.0332 28.9612C30.2234 28.9107 30.4492 28.9181 30.6096 28.9983ZM43.8388 50.3232C44.2335 50.2388 44.1576 49.4876 44.5156 49.4478C45.2769 49.3633 44.5438 51.4814 44.2622 52.0748C43.9801 52.6682 43.8664 52.6395 43.5982 52.2724C43.3288 51.9058 43.4159 51.3119 43.5982 51.0298C43.7798 50.7467 43.4436 50.4082 43.8388 50.3232Z" fill="#FFBD27"/>
</svg>
