<svg width="81" height="81" viewBox="0 0 81 81" fill="none" xmlns="http://www.w3.org/2000/svg">
<circle opacity="0.1" cx="40.5" cy="40.5" r="40.5" fill="#0180FE"/>
<path d="M50.5 26.5H47.5C47.1022 26.5 46.7206 26.658 46.4393 26.9393C46.158 27.2206 46 27.6022 46 28V53.488H52V28C52 27.6022 51.842 27.2206 51.5607 26.9393C51.2794 26.658 50.8978 26.5 50.5 26.5ZM41.5 35.5H38.5C38.1022 35.5 37.7206 35.658 37.4393 35.9393C37.158 36.2206 37 36.6022 37 37V53.488H43V37C43 36.6022 42.842 36.2206 42.5607 35.9393C42.2794 35.658 41.8978 35.5 41.5 35.5ZM32.5 44.5H29.5C29.1022 44.5 28.7206 44.658 28.4393 44.9393C28.158 45.2206 28 45.6022 28 46V53.488H34V46C34 45.6022 33.842 45.2206 33.5607 44.9393C33.2794 44.658 32.8978 44.5 32.5 44.5Z" fill="#0180FE"/>
</svg>
