<svg width="41" height="41" viewBox="0 0 41 41" fill="none" xmlns="http://www.w3.org/2000/svg">
<path d="M34.1668 13.6659L23.9168 4.68005C22.9772 3.83963 21.7608 3.375 20.5002 3.375C19.2395 3.375 18.0231 3.83963 17.0835 4.68005L6.8335 13.6659C6.29087 14.1512 5.85787 14.7465 5.5633 15.4122C5.26874 16.0779 5.11938 16.7988 5.12516 17.5267V32.4576C5.12516 33.8168 5.66512 35.1203 6.62624 36.0815C7.58736 37.0426 8.89093 37.5826 10.2502 37.5826H30.7502C32.1094 37.5826 33.413 37.0426 34.3741 36.0815C35.3352 35.1203 35.8752 33.8168 35.8752 32.4576V17.5096C35.8785 16.7846 35.728 16.067 35.4335 15.4044C35.139 14.7418 34.7073 14.1493 34.1668 13.6659V13.6659ZM23.9168 34.1659H17.0835V25.6242C17.0835 25.1711 17.2635 24.7366 17.5839 24.4162C17.9042 24.0959 18.3388 23.9159 18.7918 23.9159H22.2085C22.6616 23.9159 23.0961 24.0959 23.4165 24.4162C23.7368 24.7366 23.9168 25.1711 23.9168 25.6242V34.1659ZM32.4585 32.4576C32.4585 32.9106 32.2785 33.3452 31.9581 33.6655C31.6378 33.9859 31.2032 34.1659 30.7502 34.1659H27.3335V25.6242C27.3335 24.265 26.7935 22.9614 25.8324 22.0003C24.8713 21.0392 23.5677 20.4992 22.2085 20.4992H18.7918C17.4326 20.4992 16.129 21.0392 15.1679 22.0003C14.2068 22.9614 13.6668 24.265 13.6668 25.6242V34.1659H10.2502C9.79708 34.1659 9.36256 33.9859 9.04219 33.6655C8.72181 33.3452 8.54183 32.9106 8.54183 32.4576V17.5096C8.54214 17.2671 8.59409 17.0274 8.69424 16.8064C8.79439 16.5855 8.94044 16.3885 9.12266 16.2284L19.3727 7.25963C19.6844 6.98576 20.0852 6.83471 20.5002 6.83471C20.9151 6.83471 21.3159 6.98576 21.6277 7.25963L31.8777 16.2284C32.0599 16.3885 32.2059 16.5855 32.3061 16.8064C32.4062 17.0274 32.4582 17.2671 32.4585 17.5096V32.4576Z" fill="#00BAA3"/>
</svg>
