<svg width="30" height="30" viewBox="0 0 30 30" fill="none" xmlns="http://www.w3.org/2000/svg">
<path d="M26.25 7.5H28.125V15H26.25V7.5ZM21.5625 4.6875H23.4375V15H21.5625V4.6875ZM16.875 9.375H18.75V15H16.875V9.375ZM15 28.125H13.125V22.5C13.1243 21.7543 12.8277 21.0394 12.3004 20.5121C11.7731 19.9848 11.0582 19.6882 10.3125 19.6875H6.5625C5.81681 19.6882 5.10187 19.9848 4.57458 20.5121C4.0473 21.0394 3.75074 21.7543 3.75 22.5V28.125H1.875V22.5C1.87649 21.2573 2.37083 20.0658 3.24958 19.1871C4.12834 18.3083 5.31975 17.814 6.5625 17.8125H10.3125C11.5552 17.814 12.7467 18.3083 13.6254 19.1871C14.5042 20.0658 14.9985 21.2573 15 22.5V28.125ZM8.4375 8.4375C8.99376 8.4375 9.53753 8.60245 10 8.91149C10.4626 9.22053 10.823 9.65979 11.0359 10.1737C11.2488 10.6876 11.3045 11.2531 11.196 11.7987C11.0874 12.3443 10.8196 12.8454 10.4262 13.2387C10.0329 13.6321 9.53176 13.8999 8.98619 14.0085C8.44062 14.117 7.87512 14.0613 7.3612 13.8484C6.84729 13.6355 6.40803 13.2751 6.09899 12.8125C5.78995 12.35 5.625 11.8063 5.625 11.25C5.625 10.5041 5.92132 9.78871 6.44876 9.26126C6.97621 8.73382 7.69158 8.4375 8.4375 8.4375ZM8.4375 6.5625C7.5104 6.5625 6.60412 6.83742 5.83326 7.35249C5.06241 7.86756 4.4616 8.59964 4.10681 9.45617C3.75203 10.3127 3.6592 11.2552 3.84007 12.1645C4.02094 13.0738 4.46738 13.909 5.12294 14.5646C5.7785 15.2201 6.61373 15.6666 7.52301 15.8474C8.4323 16.0283 9.3748 15.9355 10.2313 15.5807C11.0879 15.2259 11.8199 14.6251 12.335 13.8542C12.8501 13.0834 13.125 12.1771 13.125 11.25C13.125 10.6344 13.0038 10.0249 12.7682 9.45617C12.5326 8.88746 12.1873 8.37071 11.7521 7.93544C11.3168 7.50016 10.8 7.15488 10.2313 6.91931C9.66261 6.68375 9.05307 6.5625 8.4375 6.5625Z" fill="#F87F2D"/>
</svg>
