<svg width="941" height="289" viewBox="0 0 941 289" fill="none" xmlns="http://www.w3.org/2000/svg">
<mask id="mask0_1331_7659" style="mask-type:alpha" maskUnits="userSpaceOnUse" x="0" y="0" width="289" height="289">
<circle cx="144.5" cy="144.5" r="142.507" fill="#C4C4C4" stroke="#F8BB54" stroke-width="3.98621"/>
</mask>
<g mask="url(#mask0_1331_7659)">
<path d="M-83.9766 60.6012C-83.9766 60.6012 -16.6889 48.1367 0.672143 4.51161C17.2756 -37.3079 85.6704 -48.5488 85.6704 -48.5488" stroke="#F8BB54" stroke-width="4.48062" stroke-miterlimit="10"/>
<path d="M-83.9766 81.5688C-83.9766 81.5688 -1.42515 67.1827 19.839 14.5297C40.1127 -35.7353 123.946 -48.5488 123.946 -48.5488" stroke="#F8BB54" stroke-width="4.48062" stroke-miterlimit="10"/>
<path d="M-83.9766 102.595C-83.9766 102.595 13.7801 86.2286 38.9475 24.6643C62.9498 -34.2207 162.221 -48.5488 162.221 -48.5488" stroke="#F8BB54" stroke-width="4.48062" stroke-miterlimit="10"/>
<path d="M-83.9766 123.563C-83.9766 123.563 29.0437 105.275 58.1144 34.6824C85.7869 -32.6481 200.497 -48.5488 200.497 -48.5488" stroke="#F8BB54" stroke-width="4.48062" stroke-miterlimit="10"/>
<path d="M-83.9766 144.531C-83.9766 144.531 44.3073 124.321 77.2812 44.7585C108.624 -31.0755 238.714 -48.5488 238.714 -48.5488" stroke="#F8BB54" stroke-width="4.48062" stroke-miterlimit="10"/>
<path d="M-83.9766 165.557C-83.9766 165.557 59.5126 143.425 96.3899 54.8346C131.519 -29.5613 276.989 -48.5488 276.989 -48.5488" stroke="#F8BB54" stroke-width="4.48062" stroke-miterlimit="10"/>
<path d="M-83.9766 186.525C-83.9766 186.525 74.7761 162.412 115.557 64.9112C154.356 -27.9887 315.265 -48.5488 315.265 -48.5488" stroke="#F8BB54" stroke-width="4.48062" stroke-miterlimit="10"/>
<path d="M-83.9766 207.493C-83.9766 207.493 90.0399 181.458 134.665 74.9293C177.193 -26.4161 353.54 -48.5488 353.54 -48.5488" stroke="#F8BB54" stroke-width="4.48062" stroke-miterlimit="10"/>
<path d="M-83.9766 228.52C-83.9766 228.52 105.245 200.562 153.832 85.0635C200.031 -24.9019 391.758 -48.5488 391.758 -48.5488" stroke="#F8BB54" stroke-width="4.48062" stroke-miterlimit="10"/>
<path d="M-83.9766 249.486C-83.9766 249.486 120.509 219.608 172.941 95.14C222.868 -23.3293 430.033 -48.5488 430.033 -48.5488" stroke="#F8BB54" stroke-width="4.48062" stroke-miterlimit="10"/>
<path d="M-83.9766 270.513C-83.9766 270.513 135.772 238.654 192.108 105.216C245.705 -21.7567 468.308 -48.5488 468.308 -48.5488" stroke="#F8BB54" stroke-width="4.48062" stroke-miterlimit="10"/>
<path d="M-83.9766 291.482C-83.9766 291.482 150.978 257.7 211.216 115.293C268.542 -20.2421 506.583 -48.5488 506.583 -48.5488" stroke="#F8BB54" stroke-width="4.48062" stroke-miterlimit="10"/>
<path d="M-83.9766 312.448C-83.9766 312.448 166.241 276.746 230.383 125.31C291.379 -18.6694 544.858 -48.5488 544.858 -48.5488" stroke="#F8BB54" stroke-width="4.48062" stroke-miterlimit="10"/>
<path d="M-83.9766 333.474C-83.9766 333.474 181.505 295.792 249.55 135.445C314.216 -17.0968 583.076 -48.5488 583.076 -48.5488" stroke="#F8BB54" stroke-width="4.48062" stroke-miterlimit="10"/>
<path d="M-83.9766 354.444C-83.9766 354.444 196.71 314.838 268.658 145.463C337.054 -15.5826 621.352 -48.5488 621.352 -48.5488" stroke="#F8BB54" stroke-width="4.48062" stroke-miterlimit="10"/>
<path d="M-83.9766 375.414C-83.9766 375.414 211.974 333.884 287.825 155.539C359.89 -14.01 659.627 -48.5488 659.627 -48.5488" stroke="#F8BB54" stroke-width="4.48062" stroke-miterlimit="10"/>
<path d="M-83.9766 396.44C-83.9766 396.44 227.237 352.987 306.934 165.616C382.727 -12.4374 697.902 -48.5488 697.902 -48.5488" stroke="#F8BB54" stroke-width="4.48062" stroke-miterlimit="10"/>
<path d="M-83.9766 417.406C-83.9766 417.406 242.443 371.976 326.101 175.692C405.565 -10.9232 736.121 -48.5488 736.121 -48.5488" stroke="#F8BB54" stroke-width="4.48062" stroke-miterlimit="10"/>
</g>
<g clip-path="url(#clip0_1331_7659)">
<path d="M938.249 243.909C939.707 243.909 940.889 242.727 940.889 241.269C940.889 239.811 939.707 238.629 938.249 238.629C936.791 238.629 935.609 239.811 935.609 241.269C935.609 242.727 936.791 243.909 938.249 243.909Z" fill="#3B82F6"/>
<path d="M914.312 243.909C915.77 243.909 916.952 242.727 916.952 241.269C916.952 239.811 915.77 238.629 914.312 238.629C912.854 238.629 911.672 239.811 911.672 241.269C911.672 242.727 912.854 243.909 914.312 243.909Z" fill="#3B82F6"/>
<path d="M890.382 243.909C890.907 243.911 891.42 243.758 891.857 243.468C892.294 243.178 892.636 242.764 892.838 242.28C893.04 241.796 893.094 241.263 892.993 240.749C892.891 240.234 892.64 239.761 892.27 239.389C891.899 239.018 891.427 238.764 890.913 238.661C890.399 238.558 889.865 238.61 889.38 238.81C888.896 239.01 888.481 239.35 888.19 239.786C887.898 240.222 887.742 240.735 887.742 241.259C887.742 241.96 888.02 242.633 888.515 243.13C889.01 243.626 889.681 243.907 890.382 243.909Z" fill="#3B82F6"/>
<path d="M866.451 243.909C866.975 243.909 867.487 243.754 867.923 243.463C868.359 243.172 868.698 242.758 868.899 242.274C869.1 241.789 869.152 241.256 869.05 240.742C868.948 240.228 868.695 239.756 868.325 239.386C867.954 239.015 867.482 238.763 866.968 238.66C866.454 238.558 865.921 238.611 865.437 238.811C864.952 239.012 864.539 239.351 864.247 239.787C863.956 240.223 863.801 240.735 863.801 241.259C863.801 241.607 863.869 241.952 864.002 242.274C864.136 242.595 864.331 242.887 864.577 243.133C864.823 243.379 865.115 243.575 865.437 243.708C865.758 243.841 866.103 243.909 866.451 243.909Z" fill="#3B82F6"/>
<path d="M842.511 243.909C843.969 243.909 845.151 242.727 845.151 241.269C845.151 239.811 843.969 238.629 842.511 238.629C841.053 238.629 839.871 239.811 839.871 241.269C839.871 242.727 841.053 243.909 842.511 243.909Z" fill="#3B82F6"/>
<path d="M819.59 243.594C820.939 243.04 821.582 241.497 821.028 240.149C820.473 238.8 818.931 238.157 817.582 238.711C816.234 239.265 815.59 240.808 816.145 242.156C816.699 243.505 818.242 244.149 819.59 243.594Z" fill="#3B82F6"/>
<path d="M794.652 238.66C794.127 238.658 793.613 238.812 793.176 239.103C792.739 239.393 792.398 239.807 792.196 240.291C791.994 240.776 791.941 241.31 792.043 241.825C792.145 242.34 792.397 242.813 792.768 243.184C793.14 243.555 793.613 243.808 794.128 243.91C794.643 244.012 795.176 243.958 795.661 243.756C796.146 243.555 796.559 243.214 796.85 242.776C797.14 242.339 797.294 241.825 797.292 241.3C797.29 240.601 797.011 239.931 796.516 239.436C796.021 238.942 795.351 238.663 794.652 238.66Z" fill="#3B82F6"/>
<path d="M938.249 222.499C939.707 222.499 940.889 221.317 940.889 219.859C940.889 218.401 939.707 217.219 938.249 217.219C936.791 217.219 935.609 218.401 935.609 219.859C935.609 221.317 936.791 222.499 938.249 222.499Z" fill="#3B82F6"/>
<path d="M914.312 222.499C915.77 222.499 916.952 221.317 916.952 219.859C916.952 218.401 915.77 217.219 914.312 217.219C912.854 217.219 911.672 218.401 911.672 219.859C911.672 221.317 912.854 222.499 914.312 222.499Z" fill="#3B82F6"/>
<path d="M890.382 222.499C890.907 222.501 891.421 222.347 891.858 222.057C892.296 221.766 892.637 221.353 892.839 220.868C893.04 220.383 893.094 219.85 892.992 219.335C892.89 218.82 892.637 218.347 892.266 217.975C891.895 217.604 891.422 217.352 890.907 217.25C890.392 217.148 889.858 217.201 889.374 217.403C888.889 217.605 888.475 217.946 888.185 218.383C887.894 218.821 887.74 219.334 887.742 219.859C887.745 220.559 888.024 221.229 888.518 221.723C889.013 222.218 889.683 222.497 890.382 222.499Z" fill="#3B82F6"/>
<path d="M866.451 222.499C866.975 222.499 867.488 222.344 867.924 222.052C868.36 221.76 868.7 221.346 868.9 220.861C869.1 220.376 869.152 219.843 869.049 219.329C868.946 218.814 868.693 218.342 868.321 217.972C867.949 217.602 867.476 217.35 866.962 217.249C866.447 217.148 865.914 217.202 865.43 217.404C864.946 217.606 864.533 217.947 864.243 218.384C863.953 218.821 863.799 219.335 863.801 219.859C863.801 220.207 863.869 220.551 864.003 220.872C864.136 221.193 864.331 221.484 864.578 221.73C864.824 221.975 865.116 222.169 865.437 222.301C865.759 222.433 866.103 222.501 866.451 222.499Z" fill="#3B82F6"/>
<path d="M842.511 222.499C843.969 222.499 845.151 221.317 845.151 219.859C845.151 218.401 843.969 217.219 842.511 217.219C841.053 217.219 839.871 218.401 839.871 219.859C839.871 221.317 841.053 222.499 842.511 222.499Z" fill="#3B82F6"/>
<path d="M819.59 222.192C820.939 221.638 821.582 220.095 821.028 218.746C820.473 217.398 818.931 216.754 817.582 217.309C816.234 217.863 815.59 219.406 816.145 220.754C816.699 222.103 818.242 222.746 819.59 222.192Z" fill="#3B82F6"/>
<path d="M794.65 222.499C795.175 222.499 795.687 222.344 796.123 222.052C796.559 221.76 796.899 221.346 797.099 220.861C797.3 220.376 797.351 219.843 797.248 219.329C797.145 218.814 796.892 218.342 796.52 217.972C796.149 217.602 795.676 217.35 795.161 217.249C794.646 217.148 794.113 217.202 793.629 217.404C793.145 217.606 792.732 217.947 792.442 218.384C792.152 218.821 791.998 219.335 792 219.859C792 220.207 792.069 220.551 792.202 220.872C792.335 221.193 792.531 221.484 792.777 221.73C793.023 221.975 793.315 222.169 793.637 222.301C793.958 222.433 794.303 222.501 794.65 222.499Z" fill="#3B82F6"/>
<path d="M938.249 201.089C939.707 201.089 940.889 199.907 940.889 198.449C940.889 196.991 939.707 195.809 938.249 195.809C936.791 195.809 935.609 196.991 935.609 198.449C935.609 199.907 936.791 201.089 938.249 201.089Z" fill="#3B82F6"/>
<path d="M914.312 201.089C915.77 201.089 916.952 199.907 916.952 198.449C916.952 196.991 915.77 195.809 914.312 195.809C912.854 195.809 911.672 196.991 911.672 198.449C911.672 199.907 912.854 201.089 914.312 201.089Z" fill="#3B82F6"/>
<path d="M890.382 201.101C890.907 201.103 891.42 200.949 891.857 200.659C892.294 200.369 892.636 199.956 892.838 199.472C893.04 198.988 893.094 198.455 892.993 197.94C892.891 197.425 892.64 196.952 892.27 196.581C891.899 196.209 891.427 195.956 890.913 195.852C890.399 195.749 889.865 195.801 889.38 196.002C888.896 196.202 888.481 196.541 888.19 196.977C887.898 197.414 887.742 197.926 887.742 198.451C887.742 199.152 888.02 199.824 888.515 200.321C889.01 200.818 889.681 201.098 890.382 201.101Z" fill="#3B82F6"/>
<path d="M866.451 201.101C866.975 201.101 867.487 200.945 867.923 200.654C868.359 200.363 868.698 199.949 868.899 199.465C869.1 198.981 869.152 198.448 869.05 197.934C868.948 197.42 868.695 196.948 868.325 196.577C867.954 196.206 867.482 195.954 866.968 195.852C866.454 195.749 865.921 195.802 865.437 196.003C864.952 196.203 864.539 196.543 864.247 196.979C863.956 197.414 863.801 197.927 863.801 198.451C863.801 198.799 863.869 199.143 864.002 199.465C864.136 199.786 864.331 200.079 864.577 200.325C864.823 200.571 865.115 200.766 865.437 200.899C865.758 201.032 866.103 201.101 866.451 201.101Z" fill="#3B82F6"/>
<path d="M842.511 201.089C843.969 201.089 845.151 199.907 845.151 198.449C845.151 196.991 843.969 195.809 842.511 195.809C841.053 195.809 839.871 196.991 839.871 198.449C839.871 199.907 841.053 201.089 842.511 201.089Z" fill="#3B82F6"/>
<path d="M819.59 200.792C820.939 200.237 821.582 198.694 821.028 197.346C820.473 195.997 818.931 195.354 817.582 195.908C816.234 196.463 815.59 198.005 816.145 199.354C816.699 200.702 818.242 201.346 819.59 200.792Z" fill="#3B82F6"/>
<path d="M794.65 201.101C795.174 201.101 795.687 200.945 796.122 200.654C796.558 200.363 796.898 199.949 797.098 199.465C797.299 198.981 797.351 198.448 797.249 197.934C797.147 197.42 796.895 196.948 796.524 196.577C796.153 196.206 795.681 195.954 795.167 195.852C794.653 195.749 794.12 195.802 793.636 196.003C793.152 196.203 792.738 196.543 792.447 196.979C792.155 197.414 792 197.927 792 198.451C792 199.154 792.279 199.828 792.776 200.325C793.273 200.822 793.947 201.101 794.65 201.101Z" fill="#3B82F6"/>
<path d="M938.249 179.69C939.707 179.69 940.889 178.508 940.889 177.05C940.889 175.592 939.707 174.41 938.249 174.41C936.791 174.41 935.609 175.592 935.609 177.05C935.609 178.508 936.791 179.69 938.249 179.69Z" fill="#3B82F6"/>
<path d="M914.312 179.69C915.77 179.69 916.952 178.508 916.952 177.05C916.952 175.592 915.77 174.41 914.312 174.41C912.854 174.41 911.672 175.592 911.672 177.05C911.672 178.508 912.854 179.69 914.312 179.69Z" fill="#3B82F6"/>
<path d="M890.382 179.659C890.907 179.661 891.421 179.507 891.858 179.217C892.296 178.927 892.637 178.513 892.839 178.028C893.04 177.543 893.094 177.01 892.992 176.495C892.89 175.98 892.637 175.507 892.266 175.136C891.895 174.764 891.422 174.512 890.907 174.41C890.392 174.308 889.858 174.361 889.374 174.563C888.889 174.765 888.475 175.106 888.185 175.543C887.894 175.981 887.74 176.494 887.742 177.019C887.745 177.719 888.024 178.389 888.518 178.883C889.013 179.378 889.683 179.657 890.382 179.659Z" fill="#3B82F6"/>
<path d="M866.451 179.659C866.975 179.659 867.488 179.504 867.924 179.212C868.36 178.92 868.7 178.506 868.9 178.021C869.1 177.536 869.152 177.003 869.049 176.489C868.946 175.974 868.693 175.502 868.321 175.132C867.949 174.762 867.476 174.51 866.962 174.409C866.447 174.308 865.914 174.362 865.43 174.564C864.946 174.766 864.533 175.107 864.243 175.544C863.953 175.981 863.799 176.495 863.801 177.019C863.801 177.367 863.869 177.711 864.003 178.032C864.136 178.353 864.331 178.644 864.578 178.89C864.824 179.135 865.116 179.329 865.437 179.461C865.759 179.593 866.103 179.661 866.451 179.659Z" fill="#3B82F6"/>
<path d="M842.511 179.69C843.969 179.69 845.151 178.508 845.151 177.05C845.151 175.592 843.969 174.41 842.511 174.41C841.053 174.41 839.871 175.592 839.871 177.05C839.871 178.508 841.053 179.69 842.511 179.69Z" fill="#3B82F6"/>
<path d="M819.594 179.389C820.943 178.835 821.586 177.292 821.032 175.944C820.477 174.595 818.935 173.951 817.586 174.506C816.238 175.06 815.594 176.603 816.148 177.951C816.703 179.3 818.246 179.944 819.594 179.389Z" fill="#3B82F6"/>
<path d="M794.65 179.659C795.175 179.659 795.687 179.504 796.123 179.212C796.559 178.92 796.899 178.506 797.099 178.021C797.3 177.536 797.351 177.003 797.248 176.489C797.145 175.974 796.892 175.502 796.52 175.132C796.149 174.762 795.676 174.51 795.161 174.409C794.646 174.308 794.113 174.362 793.629 174.564C793.145 174.766 792.732 175.107 792.442 175.544C792.152 175.981 791.998 176.495 792 177.019C792 177.367 792.069 177.711 792.202 178.032C792.335 178.353 792.531 178.644 792.777 178.89C793.023 179.135 793.315 179.329 793.637 179.461C793.958 179.593 794.303 179.661 794.65 179.659Z" fill="#3B82F6"/>
<path d="M938.249 158.28C939.707 158.28 940.889 157.098 940.889 155.64C940.889 154.182 939.707 153 938.249 153C936.791 153 935.609 154.182 935.609 155.64C935.609 157.098 936.791 158.28 938.249 158.28Z" fill="#3B82F6"/>
<path d="M914.312 158.28C915.77 158.28 916.952 157.098 916.952 155.64C916.952 154.182 915.77 153 914.312 153C912.854 153 911.672 154.182 911.672 155.64C911.672 157.098 912.854 158.28 914.312 158.28Z" fill="#3B82F6"/>
<path d="M890.382 158.29C890.907 158.292 891.42 158.139 891.857 157.849C892.294 157.559 892.636 157.145 892.838 156.661C893.04 156.177 893.094 155.644 892.993 155.129C892.891 154.615 892.64 154.142 892.27 153.77C891.899 153.398 891.427 153.145 890.913 153.042C890.399 152.939 889.865 152.991 889.38 153.191C888.896 153.391 888.481 153.731 888.19 154.167C887.898 154.603 887.742 155.116 887.742 155.64C887.742 156.341 888.02 157.014 888.515 157.511C889.01 158.007 889.681 158.288 890.382 158.29Z" fill="#3B82F6"/>
<path d="M866.451 158.29C866.975 158.29 867.487 158.135 867.923 157.844C868.359 157.552 868.698 157.139 868.899 156.654C869.1 156.17 869.152 155.637 869.05 155.123C868.948 154.609 868.695 154.137 868.325 153.766C867.954 153.396 867.482 153.143 866.968 153.041C866.454 152.939 865.921 152.991 865.437 153.192C864.952 153.393 864.539 153.732 864.247 154.168C863.956 154.604 863.801 155.116 863.801 155.64C863.801 155.988 863.869 156.333 864.002 156.654C864.136 156.976 864.331 157.268 864.577 157.514C864.823 157.76 865.115 157.955 865.437 158.089C865.758 158.222 866.103 158.29 866.451 158.29Z" fill="#3B82F6"/>
<path d="M842.511 158.28C843.969 158.28 845.151 157.098 845.151 155.64C845.151 154.182 843.969 153 842.511 153C841.053 153 839.871 154.182 839.871 155.64C839.871 157.098 841.053 158.28 842.511 158.28Z" fill="#3B82F6"/>
<path d="M819.59 157.977C820.939 157.423 821.582 155.88 821.028 154.531C820.473 153.183 818.931 152.539 817.582 153.094C816.234 153.648 815.59 155.191 816.145 156.539C816.699 157.888 818.242 158.532 819.59 157.977Z" fill="#3B82F6"/>
<path d="M794.65 158.29C795.174 158.29 795.687 158.135 796.122 157.844C796.558 157.552 796.898 157.139 797.098 156.654C797.299 156.17 797.351 155.637 797.249 155.123C797.147 154.609 796.895 154.137 796.524 153.766C796.153 153.396 795.681 153.143 795.167 153.041C794.653 152.939 794.12 152.991 793.636 153.192C793.152 153.393 792.738 153.732 792.447 154.168C792.155 154.604 792 155.116 792 155.64C792 156.343 792.279 157.017 792.776 157.514C793.273 158.011 793.947 158.29 794.65 158.29Z" fill="#3B82F6"/>
</g>
<g clip-path="url(#clip1_1331_7659)">
<path d="M938.249 135.909C939.707 135.909 940.889 134.727 940.889 133.269C940.889 131.811 939.707 130.629 938.249 130.629C936.791 130.629 935.609 131.811 935.609 133.269C935.609 134.727 936.791 135.909 938.249 135.909Z" fill="#3B82F6"/>
<path d="M914.312 135.909C915.77 135.909 916.952 134.727 916.952 133.269C916.952 131.811 915.77 130.629 914.312 130.629C912.854 130.629 911.672 131.811 911.672 133.269C911.672 134.727 912.854 135.909 914.312 135.909Z" fill="#3B82F6"/>
<path d="M890.382 135.909C890.907 135.911 891.42 135.758 891.857 135.468C892.294 135.178 892.636 134.764 892.838 134.28C893.04 133.796 893.094 133.263 892.993 132.749C892.891 132.234 892.64 131.761 892.27 131.389C891.899 131.018 891.427 130.764 890.913 130.661C890.399 130.558 889.865 130.61 889.38 130.81C888.896 131.01 888.481 131.35 888.19 131.786C887.898 132.222 887.742 132.735 887.742 133.259C887.742 133.96 888.02 134.633 888.515 135.13C889.01 135.626 889.681 135.907 890.382 135.909Z" fill="#3B82F6"/>
<path d="M866.451 135.909C866.975 135.909 867.487 135.754 867.923 135.463C868.359 135.172 868.698 134.758 868.899 134.274C869.1 133.789 869.152 133.256 869.05 132.742C868.948 132.228 868.695 131.756 868.325 131.386C867.954 131.015 867.482 130.763 866.968 130.66C866.454 130.558 865.921 130.611 865.437 130.811C864.952 131.012 864.539 131.351 864.247 131.787C863.956 132.223 863.801 132.735 863.801 133.259C863.801 133.607 863.869 133.952 864.002 134.274C864.136 134.595 864.331 134.887 864.577 135.133C864.823 135.379 865.115 135.575 865.437 135.708C865.758 135.841 866.103 135.909 866.451 135.909Z" fill="#3B82F6"/>
<path d="M842.511 135.909C843.969 135.909 845.151 134.727 845.151 133.269C845.151 131.811 843.969 130.629 842.511 130.629C841.053 130.629 839.871 131.811 839.871 133.269C839.871 134.727 841.053 135.909 842.511 135.909Z" fill="#3B82F6"/>
<path d="M819.59 135.594C820.939 135.04 821.582 133.497 821.028 132.149C820.473 130.8 818.931 130.157 817.582 130.711C816.234 131.265 815.59 132.808 816.145 134.156C816.699 135.505 818.242 136.149 819.59 135.594Z" fill="#3B82F6"/>
<path d="M794.652 130.66C794.127 130.658 793.613 130.812 793.176 131.103C792.739 131.393 792.398 131.807 792.196 132.291C791.994 132.776 791.941 133.31 792.043 133.825C792.145 134.34 792.397 134.813 792.768 135.184C793.14 135.555 793.613 135.808 794.128 135.91C794.643 136.012 795.176 135.958 795.661 135.756C796.146 135.555 796.559 135.214 796.85 134.776C797.14 134.339 797.294 133.825 797.292 133.3C797.29 132.601 797.011 131.931 796.516 131.436C796.021 130.942 795.351 130.663 794.652 130.66Z" fill="#3B82F6"/>
<path d="M938.249 114.499C939.707 114.499 940.889 113.317 940.889 111.859C940.889 110.401 939.707 109.219 938.249 109.219C936.791 109.219 935.609 110.401 935.609 111.859C935.609 113.317 936.791 114.499 938.249 114.499Z" fill="#3B82F6"/>
<path d="M914.312 114.499C915.77 114.499 916.952 113.317 916.952 111.859C916.952 110.401 915.77 109.219 914.312 109.219C912.854 109.219 911.672 110.401 911.672 111.859C911.672 113.317 912.854 114.499 914.312 114.499Z" fill="#3B82F6"/>
<path d="M890.382 114.499C890.907 114.501 891.421 114.347 891.858 114.057C892.296 113.766 892.637 113.353 892.839 112.868C893.04 112.383 893.094 111.85 892.992 111.335C892.89 110.82 892.637 110.347 892.266 109.975C891.895 109.604 891.422 109.352 890.907 109.25C890.392 109.148 889.858 109.201 889.374 109.403C888.889 109.605 888.475 109.946 888.185 110.383C887.894 110.821 887.74 111.334 887.742 111.859C887.745 112.559 888.024 113.229 888.518 113.723C889.013 114.218 889.683 114.497 890.382 114.499Z" fill="#3B82F6"/>
<path d="M866.451 114.499C866.975 114.499 867.488 114.344 867.924 114.052C868.36 113.76 868.7 113.346 868.9 112.861C869.1 112.376 869.152 111.843 869.049 111.329C868.946 110.814 868.693 110.342 868.321 109.972C867.949 109.602 867.476 109.35 866.962 109.249C866.447 109.148 865.914 109.202 865.43 109.404C864.946 109.606 864.533 109.947 864.243 110.384C863.953 110.821 863.799 111.335 863.801 111.859C863.801 112.207 863.869 112.551 864.003 112.872C864.136 113.193 864.331 113.484 864.578 113.73C864.824 113.975 865.116 114.169 865.437 114.301C865.759 114.433 866.103 114.501 866.451 114.499Z" fill="#3B82F6"/>
<path d="M842.511 114.499C843.969 114.499 845.151 113.317 845.151 111.859C845.151 110.401 843.969 109.219 842.511 109.219C841.053 109.219 839.871 110.401 839.871 111.859C839.871 113.317 841.053 114.499 842.511 114.499Z" fill="#3B82F6"/>
<path d="M819.59 114.192C820.939 113.638 821.582 112.095 821.028 110.746C820.473 109.398 818.931 108.754 817.582 109.309C816.234 109.863 815.59 111.406 816.145 112.754C816.699 114.103 818.242 114.746 819.59 114.192Z" fill="#3B82F6"/>
<path d="M794.65 114.499C795.175 114.499 795.687 114.344 796.123 114.052C796.559 113.76 796.899 113.346 797.099 112.861C797.3 112.376 797.351 111.843 797.248 111.329C797.145 110.814 796.892 110.342 796.52 109.972C796.149 109.602 795.676 109.35 795.161 109.249C794.646 109.148 794.113 109.202 793.629 109.404C793.145 109.606 792.732 109.947 792.442 110.384C792.152 110.821 791.998 111.335 792 111.859C792 112.207 792.069 112.551 792.202 112.872C792.335 113.193 792.531 113.484 792.777 113.73C793.023 113.975 793.315 114.169 793.637 114.301C793.958 114.433 794.303 114.501 794.65 114.499Z" fill="#3B82F6"/>
<path d="M938.249 93.0886C939.707 93.0886 940.889 91.9066 940.889 90.4486C940.889 88.9906 939.707 87.8086 938.249 87.8086C936.791 87.8086 935.609 88.9906 935.609 90.4486C935.609 91.9066 936.791 93.0886 938.249 93.0886Z" fill="#3B82F6"/>
<path d="M914.312 93.0886C915.77 93.0886 916.952 91.9066 916.952 90.4486C916.952 88.9906 915.77 87.8086 914.312 87.8086C912.854 87.8086 911.672 88.9906 911.672 90.4486C911.672 91.9066 912.854 93.0886 914.312 93.0886Z" fill="#3B82F6"/>
<path d="M890.382 93.1008C890.907 93.1028 891.42 92.9491 891.857 92.6591C892.294 92.3691 892.636 91.9559 892.838 91.4718C893.04 90.9878 893.094 90.4547 892.993 89.94C892.891 89.4253 892.64 88.9521 892.27 88.5805C891.899 88.2089 891.427 87.9555 890.913 87.8524C890.399 87.7494 889.865 87.8013 889.38 88.0015C888.896 88.2018 888.481 88.5415 888.19 88.9775C887.898 89.4135 887.742 89.9262 887.742 90.4508C887.742 91.1519 888.02 91.8244 888.515 92.3211C889.01 92.8177 889.681 93.0981 890.382 93.1008Z" fill="#3B82F6"/>
<path d="M866.451 93.1008C866.975 93.1008 867.487 92.9454 867.923 92.6542C868.359 92.363 868.698 91.9491 868.899 91.4649C869.1 90.9807 869.152 90.4478 869.05 89.9338C868.948 89.4197 868.695 88.9475 868.325 88.5769C867.954 88.2063 867.482 87.9539 866.968 87.8517C866.454 87.7494 865.921 87.8019 865.437 88.0025C864.952 88.2031 864.539 88.5427 864.247 88.9785C863.956 89.4143 863.801 89.9266 863.801 90.4508C863.801 90.7988 863.869 91.1434 864.002 91.4649C864.136 91.7864 864.331 92.0785 864.577 92.3246C864.823 92.5707 865.115 92.7659 865.437 92.8991C865.758 93.0322 866.103 93.1008 866.451 93.1008Z" fill="#3B82F6"/>
<path d="M842.511 93.0886C843.969 93.0886 845.151 91.9066 845.151 90.4486C845.151 88.9906 843.969 87.8086 842.511 87.8086C841.053 87.8086 839.871 88.9906 839.871 90.4486C839.871 91.9066 841.053 93.0886 842.511 93.0886Z" fill="#3B82F6"/>
<path d="M819.59 92.7915C820.939 92.2371 821.582 90.6944 821.028 89.3459C820.473 87.9974 818.931 87.3538 817.582 87.9082C816.234 88.4626 815.59 90.0052 816.145 91.3537C816.699 92.7022 818.242 93.346 819.59 92.7915Z" fill="#3B82F6"/>
<path d="M794.65 93.1008C795.174 93.1008 795.687 92.9454 796.122 92.6542C796.558 92.363 796.898 91.9491 797.098 91.4649C797.299 90.9807 797.351 90.4478 797.249 89.9338C797.147 89.4197 796.895 88.9475 796.524 88.5769C796.153 88.2063 795.681 87.9539 795.167 87.8517C794.653 87.7494 794.12 87.8019 793.636 88.0025C793.152 88.2031 792.738 88.5427 792.447 88.9785C792.155 89.4143 792 89.9266 792 90.4508C792 91.1536 792.279 91.8276 792.776 92.3246C793.273 92.8216 793.947 93.1008 794.65 93.1008Z" fill="#3B82F6"/>
<path d="M938.249 71.6902C939.707 71.6902 940.889 70.5082 940.889 69.0502C940.889 67.5921 939.707 66.4102 938.249 66.4102C936.791 66.4102 935.609 67.5921 935.609 69.0502C935.609 70.5082 936.791 71.6902 938.249 71.6902Z" fill="#3B82F6"/>
<path d="M914.312 71.6902C915.77 71.6902 916.952 70.5082 916.952 69.0502C916.952 67.5921 915.77 66.4102 914.312 66.4102C912.854 66.4102 911.672 67.5921 911.672 69.0502C911.672 70.5082 912.854 71.6902 914.312 71.6902Z" fill="#3B82F6"/>
<path d="M890.382 71.6594C890.907 71.6614 891.421 71.5074 891.858 71.2169C892.296 70.9265 892.637 70.5127 892.839 70.0281C893.04 69.5435 893.094 69.0098 892.992 68.4948C892.89 67.9799 892.637 67.5068 892.266 67.1356C891.895 66.7644 891.422 66.5117 890.907 66.4098C890.392 66.3079 889.858 66.3612 889.374 66.563C888.889 66.7648 888.475 67.106 888.185 67.5434C887.894 67.9807 887.74 68.4944 887.742 69.0194C887.745 69.7187 888.024 70.3887 888.518 70.8833C889.013 71.3778 889.683 71.6567 890.382 71.6594Z" fill="#3B82F6"/>
<path d="M866.451 71.6594C866.975 71.6594 867.488 71.5037 867.924 71.2121C868.36 70.9204 868.7 70.506 868.9 70.0212C869.1 69.5364 869.152 69.0031 869.049 68.4887C868.946 67.9744 868.693 67.5022 868.321 67.132C867.949 66.7618 867.476 66.5102 866.962 66.4091C866.447 66.308 865.914 66.3619 865.43 66.564C864.946 66.7661 864.533 67.1073 864.243 67.5444C863.953 67.9815 863.799 68.4948 863.801 69.0194C863.801 69.3669 863.869 69.7111 864.003 70.032C864.136 70.353 864.331 70.6444 864.578 70.8897C864.824 71.1349 865.116 71.3292 865.437 71.4613C865.759 71.5934 866.103 71.6607 866.451 71.6594Z" fill="#3B82F6"/>
<path d="M842.511 71.6902C843.969 71.6902 845.151 70.5082 845.151 69.0502C845.151 67.5921 843.969 66.4102 842.511 66.4102C841.053 66.4102 839.871 67.5921 839.871 69.0502C839.871 70.5082 841.053 71.6902 842.511 71.6902Z" fill="#3B82F6"/>
<path d="M819.594 71.3892C820.943 70.8348 821.586 69.2922 821.032 67.9437C820.477 66.5952 818.935 65.9514 817.586 66.5059C816.238 67.0603 815.594 68.603 816.148 69.9515C816.703 71.3 818.246 71.9437 819.594 71.3892Z" fill="#3B82F6"/>
<path d="M794.65 71.6594C795.175 71.6594 795.687 71.5037 796.123 71.2121C796.559 70.9204 796.899 70.506 797.099 70.0212C797.3 69.5364 797.351 69.0031 797.248 68.4887C797.145 67.9744 796.892 67.5022 796.52 67.132C796.149 66.7618 795.676 66.5102 795.161 66.4091C794.646 66.308 794.113 66.3619 793.629 66.564C793.145 66.7661 792.732 67.1073 792.442 67.5444C792.152 67.9815 791.998 68.4948 792 69.0194C792 69.3669 792.069 69.7111 792.202 70.032C792.335 70.353 792.531 70.6444 792.777 70.8897C793.023 71.1349 793.315 71.3292 793.637 71.4613C793.958 71.5934 794.303 71.6607 794.65 71.6594Z" fill="#3B82F6"/>
<path d="M938.249 50.28C939.707 50.28 940.889 49.098 940.889 47.64C940.889 46.182 939.707 45 938.249 45C936.791 45 935.609 46.182 935.609 47.64C935.609 49.098 936.791 50.28 938.249 50.28Z" fill="#3B82F6"/>
<path d="M914.312 50.28C915.77 50.28 916.952 49.098 916.952 47.64C916.952 46.182 915.77 45 914.312 45C912.854 45 911.672 46.182 911.672 47.64C911.672 49.098 912.854 50.28 914.312 50.28Z" fill="#3B82F6"/>
<path d="M890.382 50.2902C890.907 50.2922 891.42 50.1385 891.857 49.8485C892.294 49.5586 892.636 49.1453 892.838 48.6613C893.04 48.1772 893.094 47.6441 892.993 47.1294C892.891 46.6147 892.64 46.1416 892.27 45.77C891.899 45.3984 891.427 45.145 890.913 45.0419C890.399 44.9388 889.865 44.9907 889.38 45.191C888.896 45.3913 888.481 45.7309 888.19 46.167C887.898 46.603 887.742 47.1157 887.742 47.6402C887.742 48.3413 888.02 49.0138 888.515 49.5105C889.01 50.0072 889.681 50.2876 890.382 50.2902Z" fill="#3B82F6"/>
<path d="M866.451 50.2902C866.975 50.2902 867.487 50.1348 867.923 49.8436C868.359 49.5525 868.698 49.1386 868.899 48.6544C869.1 48.1701 869.152 47.6373 869.05 47.1232C868.948 46.6092 868.695 46.137 868.325 45.7664C867.954 45.3958 867.482 45.1434 866.968 45.0412C866.454 44.9389 865.921 44.9914 865.437 45.192C864.952 45.3925 864.539 45.7322 864.247 46.168C863.956 46.6038 863.801 47.1161 863.801 47.6402C863.801 47.9882 863.869 48.3329 864.002 48.6544C864.136 48.9759 864.331 49.268 864.577 49.5141C864.823 49.7601 865.115 49.9553 865.437 50.0885C865.758 50.2217 866.103 50.2902 866.451 50.2902Z" fill="#3B82F6"/>
<path d="M842.511 50.28C843.969 50.28 845.151 49.098 845.151 47.64C845.151 46.182 843.969 45 842.511 45C841.053 45 839.871 46.182 839.871 47.64C839.871 49.098 841.053 50.28 842.511 50.28Z" fill="#3B82F6"/>
<path d="M819.59 49.9771C820.939 49.4226 821.582 47.88 821.028 46.5315C820.473 45.183 818.931 44.5393 817.582 45.0938C816.234 45.6482 815.59 47.1908 816.145 48.5393C816.699 49.8878 818.242 50.5315 819.59 49.9771Z" fill="#3B82F6"/>
<path d="M794.65 50.2902C795.174 50.2902 795.687 50.1348 796.122 49.8436C796.558 49.5525 796.898 49.1386 797.098 48.6544C797.299 48.1701 797.351 47.6373 797.249 47.1232C797.147 46.6092 796.895 46.137 796.524 45.7664C796.153 45.3958 795.681 45.1434 795.167 45.0412C794.653 44.9389 794.12 44.9914 793.636 45.192C793.152 45.3925 792.738 45.7322 792.447 46.168C792.155 46.6038 792 47.1161 792 47.6402C792 48.343 792.279 49.0171 792.776 49.5141C793.273 50.011 793.947 50.2902 794.65 50.2902Z" fill="#3B82F6"/>
</g>
<defs>
<clipPath id="clip0_1331_7659">
<rect width="148.89" height="90.91" fill="white" transform="translate(792 153)"/>
</clipPath>
<clipPath id="clip1_1331_7659">
<rect width="148.89" height="90.91" fill="white" transform="translate(792 45)"/>
</clipPath>
</defs>
</svg>
