<svg width="27" height="27" viewBox="0 0 27 27" fill="none" xmlns="http://www.w3.org/2000/svg">
<path d="M10.125 14.625H16.875M10.125 19.125H13.5M4.5 4.5V22.5C4.5 23.0967 4.73705 23.669 5.15901 24.091C5.58097 24.5129 6.15326 24.75 6.75 24.75H20.25C20.8467 24.75 21.419 24.5129 21.841 24.091C22.2629 23.669 22.5 23.0967 22.5 22.5V9.38475C22.5 9.08501 22.44 8.78829 22.3237 8.51203C22.2074 8.23576 22.0371 7.98552 21.8228 7.776L16.8278 2.89125C16.4074 2.48024 15.8429 2.25007 15.255 2.25H6.75C6.15326 2.25 5.58097 2.48705 5.15901 2.90901C4.73705 3.33097 4.5 3.90326 4.5 4.5V4.5Z" stroke="#00BAA3" stroke-width="2.66667" stroke-linecap="round" stroke-linejoin="round"/>
<path d="M15.75 2.25V6.75C15.75 7.34674 15.9871 7.91903 16.409 8.34099C16.831 8.76295 17.4033 9 18 9H22.5" stroke="#00BAA3" stroke-width="2.66667" stroke-linejoin="round"/>
</svg>
