<svg width="41" height="41" viewBox="0 0 41 41" fill="none" xmlns="http://www.w3.org/2000/svg">
<path d="M17.0827 23.9167H23.916C24.3691 23.9167 24.8036 23.7367 25.124 23.4163C25.4444 23.0959 25.6243 22.6614 25.6243 22.2083C25.6243 21.7553 25.4444 21.3207 25.124 21.0004C24.8036 20.68 24.3691 20.5 23.916 20.5H17.0827C16.6296 20.5 16.1951 20.68 15.8747 21.0004C15.5543 21.3207 15.3743 21.7553 15.3743 22.2083C15.3743 22.6614 15.5543 23.0959 15.8747 23.4163C16.1951 23.7367 16.6296 23.9167 17.0827 23.9167ZM32.4577 5.125H8.54102C7.18178 5.125 5.87822 5.66495 4.91709 6.62608C3.95597 7.5872 3.41602 8.89077 3.41602 10.25V15.375C3.41602 15.8281 3.596 16.2626 3.91637 16.583C4.23675 16.9033 4.67127 17.0833 5.12435 17.0833H6.83268V30.75C6.83268 32.1092 7.37264 33.4128 8.33376 34.3739C9.29488 35.335 10.5984 35.875 11.9577 35.875H29.041C30.4002 35.875 31.7038 35.335 32.6649 34.3739C33.6261 33.4128 34.166 32.1092 34.166 30.75V17.0833H35.8743C36.3274 17.0833 36.7619 16.9033 37.0823 16.583C37.4027 16.2626 37.5827 15.8281 37.5827 15.375V10.25C37.5827 8.89077 37.0427 7.5872 36.0816 6.62608C35.1205 5.66495 33.8169 5.125 32.4577 5.125ZM30.7493 30.75C30.7493 31.2031 30.5694 31.6376 30.249 31.958C29.9286 32.2784 29.4941 32.4583 29.041 32.4583H11.9577C11.5046 32.4583 11.0701 32.2784 10.7497 31.958C10.4293 31.6376 10.2493 31.2031 10.2493 30.75V17.0833H30.7493V30.75ZM34.166 13.6667H6.83268V10.25C6.83268 9.79692 7.01267 9.3624 7.33304 9.04203C7.65342 8.72165 8.08794 8.54167 8.54102 8.54167H32.4577C32.9108 8.54167 33.3453 8.72165 33.6657 9.04203C33.986 9.3624 34.166 9.79692 34.166 10.25V13.6667Z" fill="#0180FE"/>
</svg>
