<svg width="34" height="34" viewBox="0 0 34 34" fill="none" xmlns="http://www.w3.org/2000/svg">
<path d="M16.9987 9.91732C16.623 9.91732 16.2626 10.0666 15.997 10.3322C15.7313 10.5979 15.582 10.9583 15.582 11.334V17.0007C15.582 17.3764 15.7313 17.7367 15.997 18.0024C16.2626 18.2681 16.623 18.4173 16.9987 18.4173C17.3744 18.4173 17.7348 18.2681 18.0004 18.0024C18.2661 17.7367 18.4154 17.3764 18.4154 17.0007V11.334C18.4154 10.9583 18.2661 10.5979 18.0004 10.3322C17.7348 10.0666 17.3744 9.91732 16.9987 9.91732ZM16.9987 21.2507C16.7185 21.2507 16.4446 21.3337 16.2116 21.4894C15.9787 21.6451 15.7971 21.8663 15.6899 22.1252C15.5826 22.384 15.5546 22.6689 15.6093 22.9437C15.6639 23.2185 15.7988 23.4709 15.997 23.6691C16.1951 23.8672 16.4475 24.0021 16.7223 24.0568C16.9971 24.1114 17.282 24.0834 17.5408 23.9761C17.7997 23.8689 18.0209 23.6873 18.1766 23.4544C18.3323 23.2214 18.4154 22.9475 18.4154 22.6673C18.4154 22.2916 18.2661 21.9313 18.0004 21.6656C17.7348 21.3999 17.3744 21.2507 16.9987 21.2507ZM30.7545 10.7107L23.2887 3.24482C23.0172 2.98594 22.6579 2.8392 22.2829 2.83398H11.7145C11.3394 2.8392 10.9802 2.98594 10.7087 3.24482L3.24286 10.7107C2.98399 10.9821 2.83725 11.3414 2.83203 11.7165V22.2848C2.83725 22.6599 2.98399 23.0192 3.24286 23.2907L10.7087 30.7565C10.9802 31.0154 11.3394 31.1621 11.7145 31.1673H22.2829C22.6579 31.1621 23.0172 31.0154 23.2887 30.7565L30.7545 23.2907C31.0134 23.0192 31.1601 22.6599 31.1654 22.2848V11.7165C31.1601 11.3414 31.0134 10.9821 30.7545 10.7107ZM28.332 21.6898L21.6879 28.334H12.3095L5.66536 21.6898V12.3115L12.3095 5.66732H21.6879L28.332 12.3115V21.6898Z" fill="#FFBD27"/>
</svg>
