<svg width="289" height="289" viewBox="0 0 289 289" fill="none" xmlns="http://www.w3.org/2000/svg">
<mask id="mask0_1331_7660" style="mask-type:alpha" maskUnits="userSpaceOnUse" x="0" y="0" width="289" height="289">
<circle cx="144.5" cy="144.5" r="142.507" fill="#C4C4C4" stroke="#F8BB54" stroke-width="3.98621"/>
</mask>
<g mask="url(#mask0_1331_7660)">
<path d="M-83.9766 60.6012C-83.9766 60.6012 -16.6889 48.1367 0.672143 4.51161C17.2756 -37.3079 85.6704 -48.5488 85.6704 -48.5488" stroke="#F8BB54" stroke-width="4.48062" stroke-miterlimit="10"/>
<path d="M-83.9766 81.5688C-83.9766 81.5688 -1.42515 67.1827 19.839 14.5297C40.1127 -35.7353 123.946 -48.5488 123.946 -48.5488" stroke="#F8BB54" stroke-width="4.48062" stroke-miterlimit="10"/>
<path d="M-83.9766 102.595C-83.9766 102.595 13.7801 86.2286 38.9475 24.6643C62.9498 -34.2207 162.221 -48.5488 162.221 -48.5488" stroke="#F8BB54" stroke-width="4.48062" stroke-miterlimit="10"/>
<path d="M-83.9766 123.563C-83.9766 123.563 29.0437 105.275 58.1144 34.6824C85.7869 -32.6481 200.497 -48.5488 200.497 -48.5488" stroke="#F8BB54" stroke-width="4.48062" stroke-miterlimit="10"/>
<path d="M-83.9766 144.531C-83.9766 144.531 44.3073 124.321 77.2812 44.7585C108.624 -31.0755 238.714 -48.5488 238.714 -48.5488" stroke="#F8BB54" stroke-width="4.48062" stroke-miterlimit="10"/>
<path d="M-83.9766 165.557C-83.9766 165.557 59.5126 143.425 96.3899 54.8346C131.519 -29.5613 276.989 -48.5488 276.989 -48.5488" stroke="#F8BB54" stroke-width="4.48062" stroke-miterlimit="10"/>
<path d="M-83.9766 186.525C-83.9766 186.525 74.7761 162.412 115.557 64.9112C154.356 -27.9887 315.265 -48.5488 315.265 -48.5488" stroke="#F8BB54" stroke-width="4.48062" stroke-miterlimit="10"/>
<path d="M-83.9766 207.493C-83.9766 207.493 90.0399 181.458 134.665 74.9293C177.193 -26.4161 353.54 -48.5488 353.54 -48.5488" stroke="#F8BB54" stroke-width="4.48062" stroke-miterlimit="10"/>
<path d="M-83.9766 228.52C-83.9766 228.52 105.245 200.562 153.832 85.0635C200.031 -24.9019 391.758 -48.5488 391.758 -48.5488" stroke="#F8BB54" stroke-width="4.48062" stroke-miterlimit="10"/>
<path d="M-83.9766 249.486C-83.9766 249.486 120.509 219.608 172.941 95.14C222.868 -23.3293 430.033 -48.5488 430.033 -48.5488" stroke="#F8BB54" stroke-width="4.48062" stroke-miterlimit="10"/>
<path d="M-83.9766 270.513C-83.9766 270.513 135.772 238.654 192.108 105.216C245.705 -21.7567 468.308 -48.5488 468.308 -48.5488" stroke="#F8BB54" stroke-width="4.48062" stroke-miterlimit="10"/>
<path d="M-83.9766 291.482C-83.9766 291.482 150.978 257.7 211.216 115.293C268.542 -20.2421 506.583 -48.5488 506.583 -48.5488" stroke="#F8BB54" stroke-width="4.48062" stroke-miterlimit="10"/>
<path d="M-83.9766 312.448C-83.9766 312.448 166.241 276.746 230.383 125.31C291.379 -18.6694 544.858 -48.5488 544.858 -48.5488" stroke="#F8BB54" stroke-width="4.48062" stroke-miterlimit="10"/>
<path d="M-83.9766 333.474C-83.9766 333.474 181.505 295.792 249.55 135.445C314.216 -17.0968 583.076 -48.5488 583.076 -48.5488" stroke="#F8BB54" stroke-width="4.48062" stroke-miterlimit="10"/>
<path d="M-83.9766 354.444C-83.9766 354.444 196.71 314.838 268.658 145.463C337.054 -15.5826 621.352 -48.5488 621.352 -48.5488" stroke="#F8BB54" stroke-width="4.48062" stroke-miterlimit="10"/>
<path d="M-83.9766 375.414C-83.9766 375.414 211.974 333.884 287.825 155.539C359.89 -14.01 659.627 -48.5488 659.627 -48.5488" stroke="#F8BB54" stroke-width="4.48062" stroke-miterlimit="10"/>
<path d="M-83.9766 396.44C-83.9766 396.44 227.237 352.987 306.934 165.616C382.727 -12.4374 697.902 -48.5488 697.902 -48.5488" stroke="#F8BB54" stroke-width="4.48062" stroke-miterlimit="10"/>
<path d="M-83.9766 417.406C-83.9766 417.406 242.443 371.976 326.101 175.692C405.565 -10.9232 736.121 -48.5488 736.121 -48.5488" stroke="#F8BB54" stroke-width="4.48062" stroke-miterlimit="10"/>
</g>
</svg>
