<svg width="59" height="59" viewBox="0 0 59 59" fill="none" xmlns="http://www.w3.org/2000/svg">
<circle opacity="0.1" cx="29.5" cy="29.5" r="29.5" fill="#00BAA3"/>
<path d="M24.275 28.6272L27.7576 32.1099L35.5935 24.274M43.4295 29.4979C43.4295 38.0451 34.1065 44.2615 30.7143 46.2405C30.3288 46.4654 30.1361 46.5778 29.864 46.6362C29.6529 46.6815 29.3449 46.6815 29.1338 46.6362C28.8618 46.5778 28.669 46.4654 28.2835 46.2405C24.8913 44.2615 15.5684 38.0451 15.5684 29.4979V21.1702C15.5684 19.778 15.5684 19.0819 15.7961 18.4835C15.9972 17.9549 16.3241 17.4833 16.7484 17.1093C17.2287 16.686 17.8805 16.4416 19.184 15.9528L28.5206 12.4516C28.8827 12.3158 29.0637 12.2479 29.2499 12.221C29.415 12.1972 29.5828 12.1972 29.748 12.221C29.9342 12.2479 30.1152 12.3158 30.4772 12.4516L39.8138 15.9528C41.1174 16.4416 41.7691 16.686 42.2495 17.1093C42.6738 17.4833 43.0006 17.9549 43.2018 18.4835C43.4295 19.0819 43.4295 19.778 43.4295 21.1702V29.4979Z" stroke="#00BAA3" stroke-width="3.78205" stroke-linecap="round" stroke-linejoin="round"/>
</svg>
