<svg width="52" height="52" viewBox="0 0 52 52" fill="none" xmlns="http://www.w3.org/2000/svg">
<path d="M45.5007 34.6673H15.1673C14.5927 34.6673 14.0416 34.439 13.6353 34.0327C13.2289 33.6264 13.0007 33.0753 13.0007 32.5007C13.0007 31.926 13.2289 31.3749 13.6353 30.9686C14.0416 30.5623 14.5927 30.334 15.1673 30.334H37.7873C39.2361 30.3341 40.6433 29.8502 41.7856 28.9591C42.9279 28.068 43.7398 26.8209 44.0923 25.4157L47.6673 11.354C47.7485 11.0342 47.7555 10.7001 47.6879 10.3772C47.6203 10.0543 47.4799 9.75105 47.2773 9.49065C47.0666 9.22357 46.796 9.00986 46.4873 8.86682C46.1786 8.72379 45.8406 8.65544 45.5007 8.66732H14.6473C14.2003 7.40296 13.3732 6.30781 12.2793 5.53202C11.1854 4.75622 9.87836 4.33775 8.53732 4.33398H6.50065C5.92602 4.33398 5.37492 4.56226 4.96859 4.96859C4.56226 5.37492 4.33398 5.92602 4.33398 6.50065C4.33398 7.07529 4.56226 7.62639 4.96859 8.03272C5.37492 8.43904 5.92602 8.66732 6.50065 8.66732H8.53732C9.03226 8.6529 9.51721 8.80844 9.91143 9.10805C10.3057 9.40766 10.5854 9.83325 10.704 10.314L10.834 11.354L14.5823 26.0007C12.8584 26.0782 11.2359 26.8374 10.0718 28.1113C8.90766 29.3851 8.29724 31.0692 8.37482 32.7932C8.45239 34.5171 9.21161 36.1395 10.4855 37.3037C11.7593 38.4678 13.4434 39.0782 15.1673 39.0007H15.5573C15.201 39.9824 15.0865 41.0356 15.2235 42.0711C15.3605 43.1065 15.7451 44.0936 16.3445 44.9489C16.944 45.8042 17.7407 46.5025 18.6672 46.9845C19.5938 47.4666 20.6229 47.7183 21.6673 47.7183C22.7118 47.7183 23.7408 47.4666 24.6674 46.9845C25.5939 46.5025 26.3907 45.8042 26.9901 44.9489C27.5896 44.0936 27.9741 43.1065 28.1111 42.0711C28.2482 41.0356 28.1337 39.9824 27.7773 39.0007H32.8907C32.5343 39.9824 32.4198 41.0356 32.5568 42.0711C32.6939 43.1065 33.0784 44.0936 33.6778 44.9489C34.2773 45.8042 35.074 46.5025 36.0006 46.9845C36.9271 47.4666 37.9562 47.7183 39.0007 47.7183C40.0451 47.7183 41.0742 47.4666 42.0007 46.9845C42.9273 46.5025 43.724 45.8042 44.3235 44.9489C44.9229 44.0936 45.3074 43.1065 45.4445 42.0711C45.5815 41.0356 45.467 39.9824 45.1107 39.0007H45.5007C46.0753 39.0007 46.6264 38.7724 47.0327 38.3661C47.439 37.9597 47.6673 37.4086 47.6673 36.834C47.6673 36.2593 47.439 35.7082 47.0327 35.3019C46.6264 34.8956 46.0753 34.6673 45.5007 34.6673ZM42.7273 13.0007L39.889 24.354C39.7704 24.8347 39.4907 25.2603 39.0964 25.5599C38.7022 25.8595 38.2173 26.0151 37.7223 26.0007H19.024L15.774 13.0007H42.7273ZM21.6673 43.334C21.2388 43.334 20.8199 43.2069 20.4636 42.9688C20.1073 42.7308 19.8296 42.3924 19.6656 41.9965C19.5016 41.6006 19.4587 41.1649 19.5423 40.7446C19.6259 40.3243 19.8322 39.9383 20.1353 39.6353C20.4383 39.3322 20.8243 39.1259 21.2446 39.0423C21.6649 38.9587 22.1006 39.0016 22.4965 39.1656C22.8924 39.3296 23.2308 39.6073 23.4688 39.9636C23.7069 40.3199 23.834 40.7388 23.834 41.1673C23.834 41.742 23.6057 42.2931 23.1994 42.6994C22.7931 43.1057 22.242 43.334 21.6673 43.334ZM39.0007 43.334C38.5721 43.334 38.1532 43.2069 37.7969 42.9688C37.4406 42.7308 37.1629 42.3924 36.9989 41.9965C36.8349 41.6006 36.792 41.1649 36.8756 40.7446C36.9592 40.3243 37.1656 39.9383 37.4686 39.6353C37.7716 39.3322 38.1577 39.1259 38.578 39.0423C38.9982 38.9587 39.4339 39.0016 39.8298 39.1656C40.2257 39.3296 40.5641 39.6073 40.8022 39.9636C41.0402 40.3199 41.1673 40.7388 41.1673 41.1673C41.1673 41.742 40.939 42.2931 40.5327 42.6994C40.1264 43.1057 39.5753 43.334 39.0007 43.334Z" fill="#00BAA3"/>
</svg>
