<svg width="24" height="24" viewBox="0 0 24 24" fill="none" xmlns="http://www.w3.org/2000/svg">
<path d="M2.5004 8.86061L11.5004 14.0606C11.6524 14.1484 11.8249 14.1946 12.0004 14.1946C12.1759 14.1946 12.3484 14.1484 12.5004 14.0606L21.5004 8.86061C21.6515 8.77336 21.7772 8.64807 21.8649 8.4972C21.9526 8.34633 21.9993 8.17513 22.0004 8.00062C22.0011 7.82441 21.9552 7.65114 21.8674 7.49836C21.7796 7.34558 21.653 7.21872 21.5004 7.13062L12.5004 1.94062C12.3484 1.85285 12.1759 1.80664 12.0004 1.80664C11.8249 1.80664 11.6524 1.85285 11.5004 1.94062L2.5004 7.13062C2.34779 7.21872 2.22118 7.34558 2.13337 7.49836C2.04557 7.65114 1.9997 7.82441 2.0004 8.00062C2.00145 8.17513 2.04816 8.34633 2.13587 8.4972C2.22359 8.64807 2.34926 8.77336 2.5004 8.86061V8.86061ZM12.0004 4.00062L19.0004 8.00062L12.0004 12.0006L5.0004 8.00062L12.0004 4.00062ZM20.5004 11.1706L12.0004 16.0006L3.5004 11.1306C3.38626 11.0645 3.26018 11.0216 3.1294 11.0044C2.99862 10.9872 2.86573 10.9961 2.73839 11.0305C2.61105 11.0649 2.49177 11.1241 2.38743 11.2048C2.28308 11.2855 2.19573 11.386 2.1304 11.5006C2.00002 11.7302 1.96576 12.0021 2.03507 12.2569C2.10439 12.5117 2.27167 12.7287 2.5004 12.8606L11.5004 18.0606C11.6524 18.1484 11.8249 18.1946 12.0004 18.1946C12.1759 18.1946 12.3484 18.1484 12.5004 18.0606L21.5004 12.8606C21.7291 12.7287 21.8964 12.5117 21.9657 12.2569C22.035 12.0021 22.0008 11.7302 21.8704 11.5006C21.8051 11.386 21.7177 11.2855 21.6134 11.2048C21.509 11.1241 21.3897 11.0649 21.2624 11.0305C21.1351 10.9961 21.0022 10.9872 20.8714 11.0044C20.7406 11.0216 20.6145 11.0645 20.5004 11.1306V11.1706ZM20.5004 15.1706L12.0004 20.0006L3.5004 15.1306C3.38626 15.0645 3.26018 15.0216 3.1294 15.0044C2.99862 14.9872 2.86573 14.9961 2.73839 15.0305C2.61105 15.0649 2.49177 15.1241 2.38743 15.2048C2.28308 15.2855 2.19573 15.386 2.1304 15.5006C2.00002 15.7302 1.96576 16.0021 2.03507 16.2569C2.10439 16.5117 2.27167 16.7287 2.5004 16.8606L11.5004 22.0606C11.6524 22.1484 11.8249 22.1946 12.0004 22.1946C12.1759 22.1946 12.3484 22.1484 12.5004 22.0606L21.5004 16.8606C21.7291 16.7287 21.8964 16.5117 21.9657 16.2569C22.035 16.0021 22.0008 15.7302 21.8704 15.5006C21.8051 15.386 21.7177 15.2855 21.6134 15.2048C21.509 15.1241 21.3897 15.0649 21.2624 15.0305C21.1351 14.9961 21.0022 14.9872 20.8714 15.0044C20.7406 15.0216 20.6145 15.0645 20.5004 15.1306V15.1706Z" fill="#999999"/>
</svg>
