<svg width="16" height="15" viewBox="0 0 16 15" fill="none" xmlns="http://www.w3.org/2000/svg">
<path d="M13.9801 14.2807L13.9801 14.2807C14.0575 14.3535 14.1491 14.411 14.2495 14.4502C14.35 14.4894 14.4575 14.5095 14.5661 14.5095C14.6746 14.5095 14.7821 14.4894 14.8826 14.4502C14.9831 14.411 15.0747 14.3535 15.152 14.2807C15.2294 14.208 15.291 14.1213 15.3331 14.0256C15.3753 13.9298 15.397 13.8271 15.397 13.7231C15.397 13.6192 15.3753 13.5164 15.3331 13.4207C15.291 13.325 15.2294 13.2383 15.152 13.1655L15.152 13.1655L11.9641 10.1665C12.8875 9.01769 13.3214 7.58342 13.1772 6.14628C13.0307 4.68587 12.2986 3.3339 11.1313 2.36491C9.9641 1.39602 8.4493 0.882502 6.89512 0.927756C5.34094 0.97301 3.86264 1.57369 2.76119 2.60878C1.65864 3.64472 1.01651 5.0382 0.967135 6.50557C0.917763 7.97296 1.46495 9.40204 2.49583 10.5017C3.52657 11.6013 4.96321 12.2888 6.5126 12.4254C8.04045 12.5602 9.56598 12.1495 10.7869 11.2754L13.9801 14.2807ZM10.2414 3.72445C10.6607 4.11266 10.994 4.57489 11.2221 5.08436C11.4503 5.59382 11.5689 6.14056 11.5713 6.69309C11.5737 7.24562 11.4598 7.79324 11.2361 8.30442C11.0123 8.81561 10.6831 9.28037 10.2672 9.67176C9.85122 10.0632 9.35678 10.3734 8.81226 10.5844C8.26774 10.7955 7.68406 10.903 7.09493 10.9007C6.5058 10.8985 5.92308 10.7865 5.38041 10.5713C4.83774 10.3561 4.34601 10.0421 3.93347 9.64752C3.10911 8.85909 2.65014 7.79708 2.65491 6.69309C2.65969 5.5891 3.12784 4.53061 3.95902 3.7485C4.79036 2.96624 5.91742 2.52405 7.09493 2.51954C8.27244 2.51503 9.40332 2.94857 10.2414 3.72445Z" fill="#0180FE" stroke="#0180FE" stroke-width="0.15"/>
</svg>
