<svg width="38" height="38" viewBox="0 0 38 38" fill="none" xmlns="http://www.w3.org/2000/svg">
<circle cx="19" cy="19" r="19" fill="#0180FE"/>
<path d="M21.6873 19.1207L14.783 20.2711C14.7036 20.2844 14.6291 20.3183 14.567 20.3695C14.5049 20.4206 14.4574 20.4872 14.4292 20.5626L12.0486 26.9408C11.8213 27.5275 12.4345 28.0866 12.9973 27.8043L29.4973 19.5543C29.6114 19.4971 29.7073 19.4094 29.7743 19.3008C29.8413 19.1923 29.8768 19.0672 29.8768 18.9397C29.8768 18.8121 29.8413 18.687 29.7743 18.5785C29.7073 18.47 29.6114 18.3822 29.4973 18.325L12.9973 10.075C12.4345 9.79362 11.8213 10.3528 12.0486 10.9385L14.4301 17.3167C14.4583 17.3921 14.5058 17.4587 14.5679 17.5099C14.6301 17.561 14.7045 17.595 14.7839 17.6082L21.6883 18.7586C21.7313 18.7655 21.7705 18.7875 21.7988 18.8207C21.8271 18.8539 21.8427 18.896 21.8427 18.9397C21.8427 18.9833 21.8271 19.0255 21.7988 19.0586C21.7705 19.0918 21.7313 19.1138 21.6883 19.1207H21.6873Z" fill="white"/>
</svg>
