<svg width="23" height="23" viewBox="0 0 23 23" fill="none" xmlns="http://www.w3.org/2000/svg">
<path d="M18.208 6.70817H15.333V5.74984C15.333 4.73317 14.9291 3.75815 14.2103 3.03926C13.4914 2.32037 12.5163 1.9165 11.4997 1.9165C10.483 1.9165 9.50799 2.32037 8.7891 3.03926C8.07021 3.75815 7.66634 4.73317 7.66634 5.74984V6.70817H4.79134C4.53718 6.70817 4.29342 6.80914 4.1137 6.98886C3.93397 7.16858 3.83301 7.41234 3.83301 7.6665V18.2082C3.83301 18.9707 4.13591 19.7019 4.67508 20.2411C5.21424 20.7803 5.94551 21.0832 6.70801 21.0832H16.2913C17.0538 21.0832 17.7851 20.7803 18.3243 20.2411C18.8634 19.7019 19.1663 18.9707 19.1663 18.2082V7.6665C19.1663 7.41234 19.0654 7.16858 18.8857 6.98886C18.7059 6.80914 18.4622 6.70817 18.208 6.70817ZM9.58301 5.74984C9.58301 5.24151 9.78494 4.75399 10.1444 4.39455C10.5038 4.0351 10.9913 3.83317 11.4997 3.83317C12.008 3.83317 12.4955 4.0351 12.855 4.39455C13.2144 4.75399 13.4163 5.24151 13.4163 5.74984V6.70817H9.58301V5.74984ZM17.2497 18.2082C17.2497 18.4623 17.1487 18.7061 16.969 18.8858C16.7893 19.0655 16.5455 19.1665 16.2913 19.1665H6.70801C6.45384 19.1665 6.21009 19.0655 6.03036 18.8858C5.85064 18.7061 5.74967 18.4623 5.74967 18.2082V8.62484H7.66634V9.58317C7.66634 9.83734 7.76731 10.0811 7.94703 10.2608C8.12675 10.4405 8.37051 10.5415 8.62467 10.5415C8.87884 10.5415 9.1226 10.4405 9.30232 10.2608C9.48204 10.0811 9.58301 9.83734 9.58301 9.58317V8.62484H13.4163V9.58317C13.4163 9.83734 13.5173 10.0811 13.697 10.2608C13.8768 10.4405 14.1205 10.5415 14.3747 10.5415C14.6288 10.5415 14.8726 10.4405 15.0523 10.2608C15.232 10.0811 15.333 9.83734 15.333 9.58317V8.62484H17.2497V18.2082Z" fill="#999999"/>
</svg>
