<svg width="81" height="81" viewBox="0 0 81 81" fill="none" xmlns="http://www.w3.org/2000/svg">
<circle opacity="0.1" cx="40.5" cy="40.5" r="40.5" fill="#0180FE"/>
<path d="M38.2559 21.3835C38.8026 21.1308 39.3977 21 40 21C40.6023 21 41.1974 21.1308 41.7441 21.3835L57.9684 28.8817C58.5992 29.1712 59 29.802 59 30.4329C59 31.1899 58.5992 31.8208 57.9684 32.1177L41.7441 39.6137C40.6383 40.1259 39.3617 40.1259 38.2559 39.6137L22.0339 32.1177C21.4036 31.8208 21 31.1899 21 30.4329C21 29.802 21.4035 29.1712 22.0339 28.8817L38.2559 21.3835ZM57.9684 38.3817C58.5992 38.6712 59 39.302 59 39.9329C59 40.6899 58.5992 41.3208 57.9684 41.6177L41.7441 49.1137C40.6383 49.6259 39.3617 49.6259 38.2559 49.1137L22.0339 41.6177C21.4036 41.3208 21 40.6899 21 39.9329C21 39.302 21.4035 38.6712 22.0339 38.3817L25.9823 36.5559L37.2613 41.7661C38.998 42.5751 41.002 42.5751 42.7387 41.7661L54.0199 36.5559L57.9684 38.3817ZM42.7387 51.2661L54.0199 46.0559L57.9684 47.8817C58.5992 48.1712 59 48.802 59 49.4329C59 50.1899 58.5992 50.8208 57.9684 51.1177L41.7441 58.6137C40.6383 59.1259 39.3617 59.1259 38.2559 58.6137L22.0339 51.1177C21.4036 50.8208 21 50.1899 21 49.4329C21 48.802 21.4035 48.1712 22.0339 47.8817L25.9823 46.0559L37.2613 51.2661C38.998 52.0751 41.002 52.0751 42.7387 51.2661Z" fill="#0180FE"/>
</svg>
