<svg width="24" height="24" viewBox="0 0 24 24" fill="none" xmlns="http://www.w3.org/2000/svg">
<path d="M9 9.75C9 10.3467 8.76295 10.919 8.34099 11.341C7.91903 11.7629 7.34674 12 6.75 12C6.15326 12 5.58097 11.7629 5.15901 11.341C4.73705 10.919 4.5 10.3467 4.5 9.75C4.5 9.15326 4.73705 8.58097 5.15901 8.15901C5.58097 7.73705 6.15326 7.5 6.75 7.5C7.34674 7.5 7.91903 7.73705 8.34099 8.15901C8.76295 8.58097 9 9.15326 9 9.75ZM3 14.5485C3.0004 14.1711 3.1505 13.8092 3.41737 13.5424C3.68424 13.2755 4.04609 13.1254 4.4235 13.125H9.075C9.45241 13.1254 9.81426 13.2755 10.0811 13.5424C10.348 13.8092 10.4981 14.1711 10.4985 14.5485C10.4985 15.819 9.633 16.926 8.4 17.235L8.3115 17.2575C7.2855 17.5125 6.2115 17.5125 5.1855 17.2575L5.0955 17.235C4.49674 17.0849 3.96531 16.7389 3.58565 16.2522C3.20598 15.7655 2.99985 15.1658 3 14.5485ZM14.25 9C14.0511 9 13.8603 9.07902 13.7197 9.21967C13.579 9.36032 13.5 9.55109 13.5 9.75C13.5 9.94891 13.579 10.1397 13.7197 10.2803C13.8603 10.421 14.0511 10.5 14.25 10.5H18.75C18.9489 10.5 19.1397 10.421 19.2803 10.2803C19.421 10.1397 19.5 9.94891 19.5 9.75C19.5 9.55109 19.421 9.36032 19.2803 9.21967C19.1397 9.07902 18.9489 9 18.75 9H14.25ZM14.25 13.5C14.0511 13.5 13.8603 13.579 13.7197 13.7197C13.579 13.8603 13.5 14.0511 13.5 14.25C13.5 14.4489 13.579 14.6397 13.7197 14.7803C13.8603 14.921 14.0511 15 14.25 15H18.75C18.9489 15 19.1397 14.921 19.2803 14.7803C19.421 14.6397 19.5 14.4489 19.5 14.25C19.5 14.0511 19.421 13.8603 19.2803 13.7197C19.1397 13.579 18.9489 13.5 18.75 13.5H14.25ZM0 5.625C0 4.176 1.176 3 2.625 3H21.375C22.824 3 24 4.176 24 5.625V18.375C24 19.0712 23.7234 19.7389 23.2312 20.2312C22.7389 20.7234 22.0712 21 21.375 21H2.625C1.92881 21 1.26113 20.7234 0.768845 20.2312C0.276562 19.7389 0 19.0712 0 18.375V5.625ZM2.625 4.5C2.32663 4.5 2.04048 4.61853 1.8295 4.8295C1.61853 5.04048 1.5 5.32663 1.5 5.625V18.375C1.5 18.996 2.004 19.5 2.625 19.5H21.375C21.6734 19.5 21.9595 19.3815 22.1705 19.1705C22.3815 18.9595 22.5 18.6734 22.5 18.375V5.625C22.5 5.32663 22.3815 5.04048 22.1705 4.8295C21.9595 4.61853 21.6734 4.5 21.375 4.5H2.625Z" fill="#2BBEF9"/>
</svg>
