<svg width="41" height="41" viewBox="0 0 41 41" fill="none" xmlns="http://www.w3.org/2000/svg">
<path d="M24.9075 19.3035C25.6839 18.3331 26.1112 17.1296 26.1204 15.8868C26.1204 14.3962 25.5283 12.9666 24.4742 11.9126C23.4202 10.8586 21.9906 10.2664 20.5 10.2664C19.0094 10.2664 17.5798 10.8586 16.5258 11.9126C15.4717 12.9666 14.8796 14.3962 14.8796 15.8868C14.8888 17.1296 15.3161 18.3331 16.0925 19.3035C14.5697 20.2302 13.375 21.6101 12.6758 23.2498C12.578 23.4578 12.5231 23.6835 12.5145 23.9132C12.506 24.143 12.5438 24.3721 12.6259 24.5868C12.708 24.8016 12.8326 24.9976 12.9922 25.163C13.1519 25.3285 13.3432 25.46 13.5549 25.5498C13.7666 25.6395 13.9942 25.6856 14.2241 25.6853C14.454 25.6849 14.6815 25.6382 14.8929 25.5479C15.1044 25.4575 15.2954 25.3254 15.4545 25.1595C15.6137 24.9936 15.7377 24.7973 15.8192 24.5823C16.2118 23.6645 16.8639 22.8813 17.6955 22.329C18.527 21.7766 19.5018 21.4792 20.5 21.4731C21.5012 21.4758 22.4796 21.7717 23.3145 22.3243C24.1494 22.8768 24.8041 23.6618 25.1979 24.5823C25.3287 24.891 25.5475 25.1545 25.8269 25.3398C26.1064 25.5251 26.4343 25.6241 26.7696 25.6243C26.9982 25.6201 27.224 25.5738 27.4358 25.4877C27.8524 25.3107 28.1818 24.9756 28.3515 24.556C28.5213 24.1364 28.5176 23.6666 28.3413 23.2498C27.6375 21.6076 26.4366 20.2275 24.9075 19.3035ZM20.5 18.0564C20.0634 18.0564 19.6367 17.9267 19.2739 17.6838C18.9111 17.4409 18.6287 17.0957 18.4624 16.692C18.2961 16.2883 18.2535 15.8444 18.3399 15.4164C18.4264 14.9885 18.6379 14.5959 18.9479 14.2883C19.2578 13.9808 19.652 13.7723 20.0806 13.6892C20.5092 13.6061 20.9529 13.6522 21.3552 13.8216C21.7576 13.991 22.1006 14.2762 22.3407 14.6408C22.5808 15.0055 22.7071 15.4332 22.7038 15.8698C22.6992 16.4513 22.4651 17.0074 22.0523 17.417C21.6395 17.8266 21.0815 18.0564 20.5 18.0564ZM30.75 3.41602H10.25C8.89077 3.41602 7.5872 3.95597 6.62608 4.91709C5.66495 5.87822 5.125 7.18178 5.125 8.54102V27.3327C5.125 28.6919 5.66495 29.9955 6.62608 30.9566C7.5872 31.9177 8.89077 32.4577 10.25 32.4577H14.6746L19.2871 37.0873C19.4467 37.2456 19.636 37.3709 19.8442 37.4559C20.0523 37.5409 20.2752 37.584 20.5 37.5827C20.9072 37.5827 21.301 37.4373 21.6104 37.1727L27.1112 32.4577H30.75C32.1092 32.4577 33.4128 31.9177 34.3739 30.9566C35.335 29.9955 35.875 28.6919 35.875 27.3327V8.54102C35.875 7.18178 35.335 5.87822 34.3739 4.91709C33.4128 3.95597 32.1092 3.41602 30.75 3.41602ZM32.4583 27.3327C32.4583 27.7858 32.2784 28.2203 31.958 28.5407C31.6376 28.861 31.2031 29.041 30.75 29.041H26.4792C26.072 29.041 25.6782 29.1864 25.3688 29.451L20.5854 33.551L16.5879 29.5364C16.4283 29.3781 16.239 29.2528 16.0308 29.1678C15.8227 29.0828 15.5998 29.0397 15.375 29.041H10.25C9.79692 29.041 9.3624 28.861 9.04203 28.5407C8.72165 28.2203 8.54167 27.7858 8.54167 27.3327V8.54102C8.54167 8.08794 8.72165 7.65342 9.04203 7.33304C9.3624 7.01267 9.79692 6.83268 10.25 6.83268H30.75C31.2031 6.83268 31.6376 7.01267 31.958 7.33304C32.2784 7.65342 32.4583 8.08794 32.4583 8.54102V27.3327Z" fill="#F87F2D"/>
</svg>
