<svg width="5" height="18" viewBox="0 0 5 18" fill="none" xmlns="http://www.w3.org/2000/svg">
<path d="M4.125 15.8125C4.125 16.3595 3.9077 16.8841 3.52091 17.2709C3.13411 17.6577 2.60951 17.875 2.0625 17.875C1.51549 17.875 0.990886 17.6577 0.604092 17.2709C0.217298 16.8841 0 16.3595 0 15.8125C0 15.2655 0.217298 14.7409 0.604092 14.3541C0.990886 13.9673 1.51549 13.75 2.0625 13.75C2.60951 13.75 3.13411 13.9673 3.52091 14.3541C3.9077 14.7409 4.125 15.2655 4.125 15.8125ZM4.125 8.9375C4.125 9.48451 3.9077 10.0091 3.52091 10.3959C3.13411 10.7827 2.60951 11 2.0625 11C1.51549 11 0.990886 10.7827 0.604092 10.3959C0.217298 10.0091 0 9.48451 0 8.9375C0 8.39049 0.217298 7.86589 0.604092 7.47909C0.990886 7.0923 1.51549 6.875 2.0625 6.875C2.60951 6.875 3.13411 7.0923 3.52091 7.47909C3.9077 7.86589 4.125 8.39049 4.125 8.9375ZM4.125 2.0625C4.125 2.60951 3.9077 3.13411 3.52091 3.52091C3.13411 3.9077 2.60951 4.125 2.0625 4.125C1.51549 4.125 0.990886 3.9077 0.604092 3.52091C0.217298 3.13411 0 2.60951 0 2.0625C0 1.51549 0.217298 0.990886 0.604092 0.604092C0.990886 0.217299 1.51549 0 2.0625 0C2.60951 0 3.13411 0.217299 3.52091 0.604092C3.9077 0.990886 4.125 1.51549 4.125 2.0625Z" fill="#0180FE"/>
</svg>
