<svg id="Layer_1" data-name="Layer 1" xmlns="http://www.w3.org/2000/svg" viewBox="0 0 2000 2000"><defs><style>.cls-1{fill:#231f20;}.cls-2{fill:#fff;}</style></defs><title>Damarket_logo</title><rect class="cls-1" x="995.23" width="1004.77" height="2000"/><path class="cls-2" d="M1640.79,703H1290.73V854h377.5l-60,56.45,56.47,56.47h-374v153.66h359.72l54.5-60.94V779.67Zm37.31,338.62a10.59,10.59,0,0,0-1.19,2.38,313.38,313.38,0,0,1-29.22,49.64H1308.5V994.38h369.6Zm0-214.09H1308.5V728.27h339.19a324.13,324.13,0,0,1,29.22,49.65,10.74,10.74,0,0,0,1.19,2.37Z"/><path class="cls-2" d="M1164.32,1297h-39.89v-86.69h39.89q16,0,23.27,7t7.23,22.91v27q0,15.81-7.23,22.79T1164.32,1297Zm-22.11-14.82h20.25q7.53,0,11.06-3.45T1177,1267v-26.55q0-8.28-3.51-11.8t-11.06-3.52h-20.25Z"/><path class="cls-2" d="M1278.3,1297l-6-17.28h-35.32l-6,17.28h-18.4l31.73-86.69H1265L1296.7,1297Zm-23.71-67.42L1242.11,1265h25Z"/><path class="cls-2" d="M1363.63,1274.13l27.17-63.85h19.14V1297h-17.17V1245.6l-22,51.37h-14.32l-22-51.37V1297h-17.17v-86.69h19.14Z"/><path class="cls-2" d="M1496.51,1297l-6-17.28h-35.32l-6.06,17.28h-18.39l31.73-86.69h20.75l31.74,86.69Zm-23.71-67.42L1460.32,1265h25Z"/><path class="cls-2" d="M1553.31,1268.32V1297h-17.78v-86.69h39.39q14.7,0,21.61,6.61t6.92,20.93v4.45q0,18.64-14.08,23.71l16.92,31H1587l-14.94-28.65Zm0-14.44h20.62c4,0,7-.91,8.9-2.72s2.84-4.69,2.84-8.65v-6.29q0-5.94-2.84-8.71c-1.9-1.85-4.86-2.78-8.9-2.78h-20.62Z"/><path class="cls-2" d="M1649.14,1210.28v38.53l29.64-38.53h20l-29,37.17,33.47,49.52h-19.88L1659,1261.16l-9.88,12.72V1297h-17.78v-86.69Z"/><path class="cls-2" d="M1781.52,1297h-58.29v-86.69h57.67v14.45H1741v20.38h37.41v14.32H1741v23.1h40.5Z"/><path class="cls-2" d="M1800.29,1225.1v-14.82h70.51v14.82h-26.42V1297h-17.66V1225.1Z"/><path class="cls-1" d="M660.15,703H310.09V854h377.5l-60,56.45,56.47,56.47h-374v153.66H669.81l54.5-60.94V779.67Zm37.31,338.62a10.59,10.59,0,0,0-1.19,2.38,313.38,313.38,0,0,1-29.22,49.64H327.86V994.38h369.6Zm0-214.09H327.86V728.27H667.05a324.13,324.13,0,0,1,29.22,49.65,10.74,10.74,0,0,0,1.19,2.37Z"/><path class="cls-1" d="M183.68,1297H143.79v-86.69h39.89q16,0,23.27,7t7.23,22.91v27q0,15.81-7.23,22.79T183.68,1297Zm-22.11-14.82h20.25q7.53,0,11.06-3.45t3.51-11.73v-26.55q0-8.28-3.51-11.8t-11.06-3.52H161.57Z"/><path class="cls-1" d="M297.66,1297l-6.05-17.28H256.29L250.24,1297h-18.4l31.73-86.69h20.75L316.06,1297ZM274,1229.55,261.47,1265h24.95Z"/><path class="cls-1" d="M383,1274.13l27.17-63.85H429.3V1297H412.13V1245.6l-22,51.37H375.83l-22-51.37V1297H336.68v-86.69h19.14Z"/><path class="cls-1" d="M515.87,1297l-6.05-17.28H474.5L468.44,1297H450.05l31.73-86.69h20.75L534.27,1297Zm-23.71-67.42L479.68,1265h24.95Z"/><path class="cls-1" d="M572.67,1268.32V1297H554.89v-86.69h39.39q14.7,0,21.61,6.61t6.92,20.93v4.45q0,18.64-14.08,23.71l16.92,31H606.38l-14.94-28.65Zm0-14.44h20.62c4,0,7-.91,8.9-2.72s2.84-4.69,2.84-8.65v-6.29q0-5.94-2.84-8.71c-1.9-1.85-4.86-2.78-8.9-2.78H572.67Z"/><path class="cls-1" d="M668.5,1210.28v38.53l29.64-38.53h20l-29,37.17L722.59,1297H702.71l-24.33-35.81-9.88,12.72V1297H650.72v-86.69Z"/><path class="cls-1" d="M800.88,1297H742.59v-86.69h57.67v14.45H760.38v20.38h37.41v14.32H760.38v23.1h40.5Z"/><path class="cls-1" d="M819.65,1225.1v-14.82h70.51v14.82H863.74V1297H846.08V1225.1Z"/></svg>